<?xml version="1.0" encoding="UTF-8"?>
<!DOCTYPE svg PUBLIC "-//W3C//DTD SVG 1.1//EN" "http://www.w3.org/Graphics/SVG/1.1/DTD/svg11.dtd">
<svg xmlns="http://www.w3.org/2000/svg" version="1.1" width="4583px" height="4583px" style="shape-rendering:geometricPrecision; text-rendering:geometricPrecision; image-rendering:optimizeQuality; fill-rule:evenodd; clip-rule:evenodd" xmlns:xlink="http://www.w3.org/1999/xlink">
<g><path style="opacity:1" fill="#2e3c66" d="M 2311.5,103.5 C 2311.5,215.833 2311.5,328.167 2311.5,440.5C 2311.17,552.668 2311.5,664.668 2312.5,776.5C 2312.5,888.833 2312.5,1001.17 2312.5,1113.5C 2311.17,1225.17 2311.17,1336.83 2312.5,1448.5C 2312.5,1561.17 2312.5,1673.83 2312.5,1786.5C 2311.5,1898.67 2311.17,2011 2311.5,2123.5C 2311.5,2235.5 2311.5,2347.5 2311.5,2459.5C 1577.5,2459.5 843.5,2459.5 109.5,2459.5C 109.802,2456.94 109.468,2454.61 108.5,2452.5C 88.9235,2178.02 119.59,1909.35 200.5,1646.5C 217.269,1658.09 233.936,1669.92 250.5,1682C 253.272,1683.53 255.272,1685.7 256.5,1688.5C 247.434,1716.86 238.267,1745.2 229,1773.5C 228.333,1774.83 228.333,1776.17 229,1777.5C 254.025,1758.31 279.192,1739.31 304.5,1720.5C 329.243,1739.62 354.077,1758.62 379,1777.5C 370.235,1747.37 360.735,1717.37 350.5,1687.5C 375.656,1668.76 400.989,1650.26 426.5,1632C 395.502,1631.5 364.502,1631.33 333.5,1631.5C 324.637,1601.91 314.97,1572.58 304.5,1543.5C 293.894,1572.65 283.894,1601.99 274.5,1631.5C 251.5,1631.5 228.5,1631.5 205.5,1631.5C 222.959,1575.11 242.959,1519.78 265.5,1465.5C 267.213,1464.36 267.88,1462.7 267.5,1460.5C 268.264,1457.98 269.264,1455.65 270.5,1453.5C 272.213,1452.36 272.88,1450.7 272.5,1448.5C 272.66,1446.85 273.326,1445.51 274.5,1444.5C 275.931,1443.22 276.598,1441.55 276.5,1439.5C 290.495,1405.5 305.829,1372.16 322.5,1339.5C 322.414,1340.5 322.748,1341.33 323.5,1342C 341.784,1355.28 359.784,1368.95 377.5,1383C 378.332,1383.69 378.998,1383.52 379.5,1382.5C 370.035,1353.44 360.368,1324.44 350.5,1295.5C 375.656,1276.76 400.989,1258.26 426.5,1240C 409.17,1239.5 391.837,1239.33 374.5,1239.5C 405.667,1181.38 440.001,1125.38 477.5,1071.5C 495.881,1083.7 513.881,1096.53 531.5,1110C 521.403,1138.79 511.403,1167.62 501.5,1196.5C 501.833,1196.83 502.167,1197.17 502.5,1197.5C 527.323,1179.25 552.323,1161.25 577.5,1143.5C 602.6,1161.47 627.434,1179.8 652,1198.5C 643.13,1168.89 633.63,1139.39 623.5,1110C 648.833,1091.33 674.167,1072.67 699.5,1054C 668.167,1053.67 636.833,1053.33 605.5,1053C 596.47,1023.41 587.137,993.91 577.5,964.5C 567.231,993.973 557.565,1023.64 548.5,1053.5C 529.164,1053.33 509.83,1053.5 490.5,1054C 489.627,1055.04 488.627,1055.88 487.5,1056.5C 653.587,815.577 858.92,615.077 1103.5,455C 1470.74,218.663 1873.4,101.497 2311.5,103.5 Z"/></g>
<g><path style="opacity:0.998" fill="#cf262a" d="M 2312.5,103.5 C 2700.23,108.172 3061.23,208.005 3395.5,403C 3415.57,414.691 3435.23,426.857 3454.5,439.5C 3073.83,439.5 2693.17,439.5 2312.5,439.5C 2312.5,327.5 2312.5,215.5 2312.5,103.5 Z"/></g>
<g><path style="opacity:1" fill="#fcfcfc" d="M 1432.5,452.5 C 1463.17,453.167 1493.83,453.833 1524.5,454.5C 1499.57,472.089 1474.9,490.089 1450.5,508.5C 1460.94,537.972 1470.44,567.639 1479,597.5C 1454.56,578.554 1429.73,560.221 1404.5,542.5C 1379.01,559.752 1354.01,577.752 1329.5,596.5C 1329.17,596 1328.83,595.5 1328.5,595C 1338.22,566.227 1348.22,537.56 1358.5,509C 1334.26,490.255 1309.59,472.089 1284.5,454.5C 1314.83,453.833 1345.17,453.167 1375.5,452.5C 1384.76,422.384 1394.43,392.384 1404.5,362.5C 1414.04,392.446 1423.37,422.446 1432.5,452.5 Z"/></g>
<g><path style="opacity:1" fill="#fcfcfc" d="M 1983.5,452.5 C 2013.83,453.167 2044.17,453.833 2074.5,454.5C 2049.41,472.089 2024.74,490.255 2000.5,509C 2011.03,538.268 2020.53,567.768 2029,597.5C 2004.56,578.554 1979.73,560.221 1954.5,542.5C 1928.78,560.118 1903.28,578.118 1878,596.5C 1886.3,567.932 1895.63,539.598 1906,511.5C 1906.67,510.167 1906.67,508.833 1906,507.5C 1881.68,489.934 1857.51,472.268 1833.5,454.5C 1863.5,453.833 1893.5,453.167 1923.5,452.5C 1933.62,422.823 1943.95,393.156 1954.5,363.5C 1964.77,392.973 1974.44,422.64 1983.5,452.5 Z"/></g>
<g><path style="opacity:1" fill="#ca535b" d="M 2311.5,103.5 C 2311.83,103.5 2312.17,103.5 2312.5,103.5C 2312.5,215.5 2312.5,327.5 2312.5,439.5C 2693.17,439.5 3073.83,439.5 3454.5,439.5C 3455.17,439.5 3455.5,439.833 3455.5,440.5C 3074.17,440.5 2692.83,440.5 2311.5,440.5C 2311.5,328.167 2311.5,215.833 2311.5,103.5 Z"/></g>
<g><path style="opacity:0.999" fill="#fdfdfd" d="M 2311.5,440.5 C 2692.83,440.5 3074.17,440.5 3455.5,440.5C 3571.86,513.567 3680.52,597.067 3781.5,691C 3795.83,704.667 3810.17,718.333 3824.5,732C 3839.4,746.398 3853.73,761.232 3867.5,776.5C 3349.17,776.5 2830.83,776.5 2312.5,776.5C 2311.5,664.668 2311.17,552.668 2311.5,440.5 Z"/></g>
<g><path style="opacity:1" fill="#cacdd7" d="M 1375.5,452.5 C 1345.17,453.167 1314.83,453.833 1284.5,454.5C 1283.71,454.217 1283.04,453.717 1282.5,453C 1313.5,452.5 1344.5,452.333 1375.5,452.5 Z"/></g>
<g><path style="opacity:1" fill="#cacdd7" d="M 1432.5,452.5 C 1463.84,452.333 1495.17,452.5 1526.5,453C 1525.96,453.717 1525.29,454.217 1524.5,454.5C 1493.83,453.833 1463.17,453.167 1432.5,452.5 Z"/></g>
<g><path style="opacity:1" fill="#cacdd8" d="M 1923.5,452.5 C 1893.5,453.167 1863.5,453.833 1833.5,454.5C 1832.71,454.217 1832.04,453.717 1831.5,453C 1862.16,452.5 1892.83,452.333 1923.5,452.5 Z"/></g>
<g><path style="opacity:1" fill="#cacdd7" d="M 1983.5,452.5 C 2014.5,452.333 2045.5,452.5 2076.5,453C 2075.96,453.717 2075.29,454.217 2074.5,454.5C 2044.17,453.833 2013.83,453.167 1983.5,452.5 Z"/></g>
<g><path style="opacity:1" fill="#fcfcfc" d="M 1126.5,570.5 C 1127.59,570.62 1128.25,571.287 1128.5,572.5C 1138.04,601.79 1147.37,631.124 1156.5,660.5C 1187.5,660.333 1218.5,660.5 1249.5,661C 1224.73,678.801 1200.23,696.968 1176,715.5C 1175.33,716.833 1175.33,718.167 1176,719.5C 1185.11,747.477 1193.77,775.477 1202,803.5C 1177.31,785.306 1152.47,767.306 1127.5,749.5C 1101.99,767.891 1076.32,785.725 1050.5,803C 1060.73,774.156 1071.06,745.323 1081.5,716.5C 1056.38,697.767 1031.05,679.267 1005.5,661C 1036.5,660.5 1067.5,660.333 1098.5,660.5C 1108.04,630.561 1117.37,600.561 1126.5,570.5 Z"/></g>
<g><path style="opacity:1" fill="#fcfcfc" d="M 1676.5,570.5 C 1677.59,570.62 1678.25,571.287 1678.5,572.5C 1688.04,601.79 1697.37,631.124 1706.5,660.5C 1737.84,660.333 1769.17,660.5 1800.5,661C 1775.67,679.167 1750.83,697.333 1726,715.5C 1725.33,716.833 1725.33,718.167 1726,719.5C 1735.64,747.403 1744.64,775.403 1753,803.5C 1727.92,785.377 1702.75,767.377 1677.5,749.5C 1651.99,767.891 1626.32,785.725 1600.5,803C 1610.73,774.134 1621.07,745.301 1631.5,716.5C 1606.38,697.767 1581.05,679.267 1555.5,661C 1586.5,660.5 1617.5,660.333 1648.5,660.5C 1657.83,630.5 1667.17,600.5 1676.5,570.5 Z"/></g>
<g><path style="opacity:1" fill="#eaecf0" d="M 924.5,586.5 C 926.411,586.574 927.578,587.574 928,589.5C 929.039,591.901 929.206,594.234 928.5,596.5C 926.016,594.517 923.683,592.35 921.5,590C 922.71,588.961 923.71,587.794 924.5,586.5 Z"/></g>
<g><path style="opacity:1" fill="#fcfcfc" d="M 883.5,845.5 C 914.167,846.167 944.833,846.833 975.5,847.5C 950.378,865.448 925.378,883.615 900.5,902C 910.626,931.375 920.126,960.875 929,990.5C 904.434,971.801 879.6,953.467 854.5,935.5C 829.193,953.64 804.027,971.973 779,990.5C 778.83,988.155 779.163,985.821 780,983.5C 789.136,956.593 797.969,929.593 806.5,902.5C 782.751,883.452 758.418,865.118 733.5,847.5C 764.167,846.833 794.833,846.167 825.5,845.5C 834.565,815.639 844.231,785.972 854.5,756.5C 864.769,785.972 874.435,815.639 883.5,845.5 Z"/></g>
<g><path style="opacity:1" fill="#fcfcfc" d="M 1432.5,845.5 C 1463.5,846.167 1494.5,846.833 1525.5,847.5C 1500.38,865.448 1475.38,883.615 1450.5,902C 1460.63,931.386 1470.13,960.886 1479,990.5C 1454.43,971.801 1429.6,953.467 1404.5,935.5C 1379.19,953.64 1354.03,971.973 1329,990.5C 1338.08,960.823 1347.91,931.323 1358.5,902C 1333.62,883.615 1308.62,865.448 1283.5,847.5C 1314.17,846.833 1344.83,846.167 1375.5,845.5C 1384.56,815.639 1394.23,785.972 1404.5,756.5C 1414.24,786.052 1423.57,815.719 1432.5,845.5 Z"/></g>
<g><path style="opacity:1" fill="#fcfcfc" d="M 1983.5,845.5 C 2014.17,846.167 2044.83,846.833 2075.5,847.5C 2050.38,865.448 2025.38,883.615 2000.5,902C 2010.63,931.386 2020.13,960.886 2029,990.5C 2004.43,971.801 1979.6,953.467 1954.5,935.5C 1928.55,953.445 1902.89,971.779 1877.5,990.5C 1877.17,990.167 1876.83,989.833 1876.5,989.5C 1886.9,960.644 1896.9,931.644 1906.5,902.5C 1882.43,883.435 1857.76,865.101 1832.5,847.5C 1862.83,846.833 1893.17,846.167 1923.5,845.5C 1933.66,815.877 1944,786.21 1954.5,756.5C 1964.77,785.972 1974.44,815.639 1983.5,845.5 Z"/></g>
<g><path style="opacity:1" fill="#d0262b" d="M 2312.5,776.5 C 2830.83,776.5 3349.17,776.5 3867.5,776.5C 3967.51,880.465 4056.51,992.798 4134.5,1113.5C 3527.17,1113.5 2919.83,1113.5 2312.5,1113.5C 2312.5,1001.17 2312.5,888.833 2312.5,776.5 Z"/></g>
<g><path style="opacity:1" fill="#959cb1" d="M 825.5,845.5 C 794.833,846.167 764.167,846.833 733.5,847.5C 732.957,847.44 732.624,847.107 732.5,846.5C 763.493,845.5 794.493,845.167 825.5,845.5 Z"/></g>
<g><path style="opacity:1" fill="#959cb1" d="M 883.5,845.5 C 914.507,845.167 945.507,845.5 976.5,846.5C 976.376,847.107 976.043,847.44 975.5,847.5C 944.833,846.833 914.167,846.167 883.5,845.5 Z"/></g>
<g><path style="opacity:1" fill="#959cb1" d="M 1375.5,845.5 C 1344.83,846.167 1314.17,846.833 1283.5,847.5C 1282.96,847.44 1282.62,847.107 1282.5,846.5C 1313.49,845.5 1344.49,845.167 1375.5,845.5 Z"/></g>
<g><path style="opacity:1" fill="#959cb1" d="M 1432.5,845.5 C 1463.84,845.167 1495.17,845.5 1526.5,846.5C 1526.38,847.107 1526.04,847.44 1525.5,847.5C 1494.5,846.833 1463.5,846.167 1432.5,845.5 Z"/></g>
<g><path style="opacity:1" fill="#959db1" d="M 1923.5,845.5 C 1893.17,846.167 1862.83,846.833 1832.5,847.5C 1831.96,847.44 1831.62,847.107 1831.5,846.5C 1862.16,845.5 1892.83,845.167 1923.5,845.5 Z"/></g>
<g><path style="opacity:1" fill="#959cb1" d="M 1983.5,845.5 C 2014.51,845.167 2045.51,845.5 2076.5,846.5C 2076.38,847.107 2076.04,847.44 2075.5,847.5C 2044.83,846.833 2014.17,846.167 1983.5,845.5 Z"/></g>
<g><path style="opacity:1" fill="#fbfbfc" d="M 477.5,1071.5 C 479.673,1067.15 482.34,1063.15 485.5,1059.5C 486.906,1059.03 487.573,1058.03 487.5,1056.5C 488.627,1055.88 489.627,1055.04 490.5,1054C 509.83,1053.5 529.164,1053.33 548.5,1053.5C 557.565,1023.64 567.231,993.973 577.5,964.5C 587.137,993.91 596.47,1023.41 605.5,1053C 636.833,1053.33 668.167,1053.67 699.5,1054C 674.167,1072.67 648.833,1091.33 623.5,1110C 633.63,1139.39 643.13,1168.89 652,1198.5C 627.434,1179.8 602.6,1161.47 577.5,1143.5C 552.323,1161.25 527.323,1179.25 502.5,1197.5C 502.167,1197.17 501.833,1196.83 501.5,1196.5C 511.403,1167.62 521.403,1138.79 531.5,1110C 513.881,1096.53 495.881,1083.7 477.5,1071.5 Z"/></g>
<g><path style="opacity:1" fill="#fbfbfc" d="M 1126.5,964.5 C 1127.5,964.47 1128.16,964.97 1128.5,966C 1137.94,994.808 1147.27,1023.64 1156.5,1052.5C 1187.49,1053.33 1218.49,1053.83 1249.5,1054C 1225.09,1072.29 1200.59,1090.46 1176,1108.5C 1176.01,1112.22 1176.68,1115.89 1178,1119.5C 1186.64,1145.74 1194.64,1172.07 1202,1198.5C 1177.43,1179.8 1152.6,1161.47 1127.5,1143.5C 1102.32,1161.25 1077.32,1179.25 1052.5,1197.5C 1052.17,1197 1051.83,1196.5 1051.5,1196C 1061.51,1167.32 1071.51,1138.65 1081.5,1110C 1056.17,1091.33 1030.83,1072.67 1005.5,1054C 1036.5,1053.5 1067.5,1053.33 1098.5,1053.5C 1107.83,1023.83 1117.17,994.167 1126.5,964.5 Z"/></g>
<g><path style="opacity:1" fill="#fbfcfc" d="M 1706.5,1053.5 C 1737.5,1054.17 1768.5,1054.83 1799.5,1055.5C 1774.94,1073.03 1750.44,1090.7 1726,1108.5C 1734.13,1137.88 1743.29,1167.05 1753.5,1196C 1753.17,1196.5 1752.83,1197 1752.5,1197.5C 1727.58,1179.13 1702.41,1161.13 1677,1143.5C 1652.1,1161.37 1627.26,1179.37 1602.5,1197.5C 1602.17,1197 1601.83,1196.5 1601.5,1196C 1611.51,1167.32 1621.51,1138.65 1631.5,1110C 1606.17,1091.33 1580.83,1072.67 1555.5,1054C 1586.5,1053.5 1617.5,1053.33 1648.5,1053.5C 1657.56,1023.64 1667.23,993.973 1677.5,964.5C 1687.77,993.972 1697.44,1023.64 1706.5,1053.5 Z"/></g>
<g><path style="opacity:1" fill="#959cb1" d="M 1706.5,1053.5 C 1737.84,1053.17 1769.17,1053.5 1800.5,1054.5C 1800.38,1055.11 1800.04,1055.44 1799.5,1055.5C 1768.5,1054.83 1737.5,1054.17 1706.5,1053.5 Z"/></g>
<g><path style="opacity:0.871" fill="#6c6785" d="M 487.5,1056.5 C 487.573,1058.03 486.906,1059.03 485.5,1059.5C 485.427,1057.97 486.094,1056.97 487.5,1056.5 Z"/></g>
<g><path style="opacity:1" fill="#fdfdfd" d="M 2312.5,1113.5 C 2919.83,1113.5 3527.17,1113.5 4134.5,1113.5C 4202.24,1219.96 4260.9,1331.62 4310.5,1448.5C 3644.5,1448.5 2978.5,1448.5 2312.5,1448.5C 2311.17,1336.83 2311.17,1225.17 2312.5,1113.5 Z"/></g>
<g><path style="opacity:1" fill="#fcfcfc" d="M 853.5,1149.5 C 854.497,1149.47 855.164,1149.97 855.5,1151C 864.941,1180.49 874.274,1209.99 883.5,1239.5C 914.502,1239.33 945.502,1239.5 976.5,1240C 950.989,1258.26 925.656,1276.76 900.5,1295.5C 910.923,1324.76 920.256,1354.09 928.5,1383.5C 903.833,1365.17 879.167,1346.83 854.5,1328.5C 829.245,1346.71 804.078,1365.04 779,1383.5C 787.162,1355.01 796.162,1326.68 806,1298.5C 806.667,1297.17 806.667,1295.83 806,1294.5C 781.767,1275.97 757.267,1257.8 732.5,1240C 763.498,1239.5 794.498,1239.33 825.5,1239.5C 835.038,1209.55 844.371,1179.55 853.5,1149.5 Z"/></g>
<g><path style="opacity:1" fill="#fcfcfc" d="M 1403.5,1149.5 C 1404.59,1149.62 1405.25,1150.29 1405.5,1151.5C 1414.3,1180.57 1423.3,1209.57 1432.5,1238.5C 1463.83,1239.33 1495.16,1239.83 1526.5,1240C 1500.99,1258.26 1475.66,1276.76 1450.5,1295.5C 1460.92,1324.76 1470.26,1354.09 1478.5,1383.5C 1453.83,1365.17 1429.17,1346.83 1404.5,1328.5C 1379.24,1346.71 1354.08,1365.04 1329,1383.5C 1337.9,1353.97 1347.73,1324.63 1358.5,1295.5C 1333.34,1276.76 1308.01,1258.26 1282.5,1240C 1313.5,1239.5 1344.5,1239.33 1375.5,1239.5C 1385.04,1209.55 1394.37,1179.55 1403.5,1149.5 Z"/></g>
<g><path style="opacity:1" fill="#fcfcfc" d="M 1953.5,1149.5 C 1954.5,1149.47 1955.16,1149.97 1955.5,1151C 1964.94,1180.49 1974.27,1209.99 1983.5,1239.5C 2014.5,1239.33 2045.5,1239.5 2076.5,1240C 2050.99,1258.26 2025.66,1276.76 2000.5,1295.5C 2010.92,1324.76 2020.26,1354.09 2028.5,1383.5C 2003.83,1365.17 1979.17,1346.83 1954.5,1328.5C 1928.83,1347.47 1902.83,1365.64 1876.5,1383C 1887.16,1353.68 1897,1324.18 1906,1294.5C 1881.17,1276.33 1856.33,1258.17 1831.5,1240C 1862.5,1239.5 1893.5,1239.33 1924.5,1239.5C 1934.16,1209.52 1943.83,1179.52 1953.5,1149.5 Z"/></g>
<g><path style="opacity:1" fill="#f9f9fa" d="M 374.5,1239.5 C 391.837,1239.33 409.17,1239.5 426.5,1240C 400.989,1258.26 375.656,1276.76 350.5,1295.5C 360.368,1324.44 370.035,1353.44 379.5,1382.5C 378.998,1383.52 378.332,1383.69 377.5,1383C 359.784,1368.95 341.784,1355.28 323.5,1342C 322.748,1341.33 322.414,1340.5 322.5,1339.5C 338.306,1305.22 355.64,1271.88 374.5,1239.5 Z"/></g>
<g><path style="opacity:1" fill="#fcfcfd" d="M 605.5,1446.5 C 636.5,1447.17 667.5,1447.83 698.5,1448.5C 673.214,1466.45 648.214,1484.79 623.5,1503.5C 633.535,1532.44 643.035,1561.44 652,1590.5C 627.307,1572.31 602.473,1554.31 577.5,1536.5C 552.325,1553.92 527.325,1571.59 502.5,1589.5C 501.417,1588.64 501.251,1587.64 502,1586.5C 511.759,1558.62 521.592,1530.79 531.5,1503C 506.622,1484.62 481.622,1466.45 456.5,1448.5C 487.167,1447.83 517.833,1447.17 548.5,1446.5C 557.704,1416.68 567.371,1387.02 577.5,1357.5C 586.841,1387.19 596.175,1416.86 605.5,1446.5 Z"/></g>
<g><path style="opacity:1" fill="#fcfcfc" d="M 1156.5,1446.5 C 1187.17,1447.17 1217.83,1447.83 1248.5,1448.5C 1224.21,1466.28 1200.04,1484.28 1176,1502.5C 1175.33,1503.83 1175.33,1505.17 1176,1506.5C 1185.11,1534.48 1193.77,1562.48 1202,1590.5C 1177.31,1572.31 1152.47,1554.31 1127.5,1536.5C 1102.32,1553.92 1077.32,1571.59 1052.5,1589.5C 1051.42,1588.64 1051.25,1587.64 1052,1586.5C 1061.64,1558.57 1071.47,1530.74 1081.5,1503C 1056.62,1484.62 1031.62,1466.45 1006.5,1448.5C 1037.17,1447.83 1067.83,1447.17 1098.5,1446.5C 1107.56,1416.64 1117.23,1386.97 1127.5,1357.5C 1137.37,1387.1 1147.03,1416.76 1156.5,1446.5 Z"/></g>
<g><path style="opacity:1" fill="#fcfcfc" d="M 1556.5,1448.5 C 1587.17,1447.83 1617.83,1447.17 1648.5,1446.5C 1657.56,1416.64 1667.23,1386.97 1677.5,1357.5C 1687.57,1387.37 1697.23,1417.37 1706.5,1447.5C 1737.84,1447.33 1769.17,1447.5 1800.5,1448C 1775.58,1466.04 1750.74,1484.21 1726,1502.5C 1734.53,1531.1 1743.7,1559.6 1753.5,1588C 1753.17,1588.5 1752.83,1589 1752.5,1589.5C 1727.32,1572.08 1702.32,1554.41 1677.5,1536.5C 1652.32,1553.92 1627.32,1571.59 1602.5,1589.5C 1610.89,1560.65 1620.56,1531.99 1631.5,1503.5C 1606.79,1484.79 1581.79,1466.45 1556.5,1448.5 Z"/></g>
<g><path style="opacity:0.565" fill="#c4c8d4" d="M 276.5,1439.5 C 276.598,1441.55 275.931,1443.22 274.5,1444.5C 274.402,1442.45 275.069,1440.78 276.5,1439.5 Z"/></g>
<g><path style="opacity:1" fill="#626d8c" d="M 548.5,1446.5 C 517.833,1447.17 487.167,1447.83 456.5,1448.5C 455.957,1448.44 455.624,1448.11 455.5,1447.5C 486.493,1446.5 517.493,1446.17 548.5,1446.5 Z"/></g>
<g><path style="opacity:1" fill="#626d8c" d="M 605.5,1446.5 C 636.84,1446.17 668.174,1446.5 699.5,1447.5C 699.376,1448.11 699.043,1448.44 698.5,1448.5C 667.5,1447.83 636.5,1447.17 605.5,1446.5 Z"/></g>
<g><path style="opacity:1" fill="#626d8c" d="M 1098.5,1446.5 C 1067.83,1447.17 1037.17,1447.83 1006.5,1448.5C 1005.96,1448.44 1005.62,1448.11 1005.5,1447.5C 1036.49,1446.5 1067.49,1446.17 1098.5,1446.5 Z"/></g>
<g><path style="opacity:1" fill="#626d8c" d="M 1156.5,1446.5 C 1187.51,1446.17 1218.51,1446.5 1249.5,1447.5C 1249.38,1448.11 1249.04,1448.44 1248.5,1448.5C 1217.83,1447.83 1187.17,1447.17 1156.5,1446.5 Z"/></g>
<g><path style="opacity:1" fill="#626d8c" d="M 1648.5,1446.5 C 1617.83,1447.17 1587.17,1447.83 1556.5,1448.5C 1555.96,1448.44 1555.62,1448.11 1555.5,1447.5C 1586.49,1446.5 1617.49,1446.17 1648.5,1446.5 Z"/></g>
<g><path style="opacity:1" fill="#d0262b" d="M 2312.5,1448.5 C 2978.5,1448.5 3644.5,1448.5 4310.5,1448.5C 4356.57,1558.04 4393.24,1670.71 4420.5,1786.5C 3717.83,1786.5 3015.17,1786.5 2312.5,1786.5C 2312.5,1673.83 2312.5,1561.17 2312.5,1448.5 Z"/></g>
<g><path style="opacity:1" fill="#8a3446" d="M 272.5,1448.5 C 272.88,1450.7 272.213,1452.36 270.5,1453.5C 270.796,1451.6 271.463,1449.93 272.5,1448.5 Z"/></g>
<g><path style="opacity:1" fill="#8a3446" d="M 267.5,1460.5 C 267.88,1462.7 267.213,1464.36 265.5,1465.5C 265.796,1463.6 266.463,1461.93 267.5,1460.5 Z"/></g>
<g><path style="opacity:1" fill="#fcfcfc" d="M 200.5,1646.5 C 201.589,1641.23 203.256,1636.23 205.5,1631.5C 228.5,1631.5 251.5,1631.5 274.5,1631.5C 283.894,1601.99 293.894,1572.65 304.5,1543.5C 314.97,1572.58 324.637,1601.91 333.5,1631.5C 364.502,1631.33 395.502,1631.5 426.5,1632C 400.989,1650.26 375.656,1668.76 350.5,1687.5C 360.735,1717.37 370.235,1747.37 379,1777.5C 354.077,1758.62 329.243,1739.62 304.5,1720.5C 279.192,1739.31 254.025,1758.31 229,1777.5C 228.333,1776.17 228.333,1774.83 229,1773.5C 238.267,1745.2 247.434,1716.86 256.5,1688.5C 255.272,1685.7 253.272,1683.53 250.5,1682C 233.936,1669.92 217.269,1658.09 200.5,1646.5 Z"/></g>
<g><path style="opacity:1" fill="#fcfcfc" d="M 853.5,1543.5 C 854.497,1543.47 855.164,1543.97 855.5,1545C 865.344,1573.7 874.677,1602.53 883.5,1631.5C 914.502,1631.33 945.502,1631.5 976.5,1632C 950.989,1650.26 925.656,1668.76 900.5,1687.5C 910.735,1717.37 920.235,1747.37 929,1777.5C 904.077,1758.62 879.243,1739.62 854.5,1720.5C 829.192,1739.31 804.025,1758.31 779,1777.5C 787.161,1748.34 796.161,1719.34 806,1690.5C 806.667,1689.17 806.667,1687.83 806,1686.5C 781.767,1667.97 757.267,1649.8 732.5,1632C 763.498,1631.5 794.498,1631.33 825.5,1631.5C 835.035,1602.23 844.368,1572.89 853.5,1543.5 Z"/></g>
<g><path style="opacity:1" fill="#fcfcfc" d="M 1403.5,1543.5 C 1404.5,1543.47 1405.16,1543.97 1405.5,1545C 1414.27,1573.58 1423.27,1602.08 1432.5,1630.5C 1463.83,1631.33 1495.16,1631.83 1526.5,1632C 1500.99,1650.26 1475.66,1668.76 1450.5,1687.5C 1460.74,1717.37 1470.24,1747.37 1479,1777.5C 1454.39,1758.46 1429.56,1739.79 1404.5,1721.5C 1378.94,1739.55 1353.77,1758.22 1329,1777.5C 1337.8,1747.42 1347.64,1717.59 1358.5,1688C 1333.55,1668.85 1308.22,1650.19 1282.5,1632C 1313.5,1631.5 1344.5,1631.33 1375.5,1631.5C 1385.04,1602.23 1394.37,1572.89 1403.5,1543.5 Z"/></g>
<g><path style="opacity:1" fill="#fcfcfc" d="M 1953.5,1543.5 C 1954.5,1543.47 1955.16,1543.97 1955.5,1545C 1965.34,1573.7 1974.68,1602.53 1983.5,1631.5C 2014.5,1631.33 2045.5,1631.5 2076.5,1632C 2050.78,1650.19 2025.45,1668.85 2000.5,1688C 2010.83,1717.66 2020.33,1747.5 2029,1777.5C 2004.39,1758.46 1979.56,1739.79 1954.5,1721.5C 1928.78,1739.45 1903.28,1757.79 1878,1776.5C 1886.5,1747.66 1895.83,1719 1906,1690.5C 1906.67,1689.17 1906.67,1687.83 1906,1686.5C 1881.17,1668.33 1856.33,1650.17 1831.5,1632C 1862.5,1631.5 1893.5,1631.33 1924.5,1631.5C 1934.16,1602.18 1943.82,1572.85 1953.5,1543.5 Z"/></g>
<g><path style="opacity:1" fill="#fcfcfc" d="M 576.5,1749.5 C 577.586,1749.62 578.253,1750.29 578.5,1751.5C 587.3,1780.57 596.3,1809.57 605.5,1838.5C 636.828,1839.33 668.161,1839.83 699.5,1840C 673.722,1857.95 648.389,1876.45 623.5,1895.5C 633.923,1924.76 643.256,1954.09 651.5,1983.5C 626.833,1965.17 602.167,1946.83 577.5,1928.5C 552.193,1946.64 527.027,1964.97 502,1983.5C 510.904,1953.96 520.737,1924.62 531.5,1895.5C 506.382,1876.77 481.049,1858.27 455.5,1840C 486.498,1839.5 517.498,1839.33 548.5,1839.5C 557.833,1809.5 567.167,1779.5 576.5,1749.5 Z"/></g>
<g><path style="opacity:1" fill="#fcfcfc" d="M 1126.5,1749.5 C 1127.5,1749.47 1128.16,1749.97 1128.5,1751C 1137.94,1780.49 1147.27,1809.99 1156.5,1839.5C 1187.5,1839.33 1218.5,1839.5 1249.5,1840C 1224.72,1857.78 1200.22,1875.95 1176,1894.5C 1184.1,1923.96 1192.93,1953.29 1202.5,1982.5C 1202.17,1982.83 1201.83,1983.17 1201.5,1983.5C 1176.83,1965.17 1152.17,1946.83 1127.5,1928.5C 1102.19,1946.64 1077.03,1964.97 1052,1983.5C 1061.2,1954.06 1071.03,1924.73 1081.5,1895.5C 1056.38,1876.77 1031.05,1858.27 1005.5,1840C 1036.5,1839.5 1067.5,1839.33 1098.5,1839.5C 1107.83,1809.5 1117.17,1779.5 1126.5,1749.5 Z"/></g>
<g><path style="opacity:1" fill="#fcfcfc" d="M 1676.5,1749.5 C 1677.59,1749.62 1678.25,1750.29 1678.5,1751.5C 1688.04,1780.79 1697.37,1810.12 1706.5,1839.5C 1737.84,1839.33 1769.17,1839.5 1800.5,1840C 1775.58,1858.04 1750.74,1876.21 1726,1894.5C 1725.33,1895.83 1725.33,1897.17 1726,1898.5C 1735.84,1926.68 1744.84,1955.01 1753,1983.5C 1727.92,1965.04 1702.76,1946.71 1677.5,1928.5C 1652.19,1946.64 1627.03,1964.97 1602,1983.5C 1610.9,1953.96 1620.74,1924.62 1631.5,1895.5C 1606.38,1876.77 1581.05,1858.27 1555.5,1840C 1586.5,1839.5 1617.5,1839.33 1648.5,1839.5C 1657.83,1809.5 1667.17,1779.5 1676.5,1749.5 Z"/></g>
<g><path style="opacity:1" fill="#fdfdfd" d="M 2312.5,1786.5 C 3015.17,1786.5 3717.83,1786.5 4420.5,1786.5C 4446.48,1897.39 4464.15,2009.72 4473.5,2123.5C 3753.17,2123.5 3032.83,2123.5 2312.5,2123.5C 2312.17,2123.5 2311.83,2123.5 2311.5,2123.5C 2311.17,2011 2311.5,1898.67 2312.5,1786.5 Z"/></g>
<g><path style="opacity:1" fill="#fcfcfc" d="M 333.5,2024.5 C 364.167,2025.17 394.833,2025.83 425.5,2026.5C 400.378,2044.45 375.378,2062.62 350.5,2081C 360.626,2110.38 370.126,2139.88 379,2169.5C 354.434,2150.8 329.6,2132.47 304.5,2114.5C 279.193,2132.64 254.027,2150.97 229,2169.5C 228.83,2167.15 229.163,2164.82 230,2162.5C 239.136,2135.59 247.969,2108.59 256.5,2081.5C 232.426,2062.43 207.76,2044.1 182.5,2026.5C 212.833,2025.83 243.167,2025.17 273.5,2024.5C 284.125,1995.37 294.458,1966.04 304.5,1936.5C 314.567,1965.7 324.234,1995.03 333.5,2024.5 Z"/></g>
<g><path style="opacity:1" fill="#fbfbfc" d="M 883.5,2024.5 C 914.167,2025.17 944.833,2025.83 975.5,2026.5C 950.378,2044.45 925.378,2062.62 900.5,2081C 910.626,2110.38 920.126,2139.88 929,2169.5C 904.434,2150.8 879.6,2132.47 854.5,2114.5C 829.193,2132.64 804.027,2150.97 779,2169.5C 778.333,2168.17 778.333,2166.83 779,2165.5C 788.469,2137.59 797.636,2109.59 806.5,2081.5C 805.455,2079.8 804.122,2078.3 802.5,2077C 779.167,2059.67 755.833,2042.33 732.5,2025C 763.505,2024.83 794.505,2024.33 825.5,2023.5C 834.972,1994.42 844.639,1965.42 854.5,1936.5C 864.567,1965.7 874.234,1995.03 883.5,2024.5 Z"/></g>
<g><path style="opacity:1" fill="#fbfcfc" d="M 1832.5,2026.5 C 1862.83,2025.83 1893.17,2025.17 1923.5,2024.5C 1933.81,1995.26 1944.14,1965.92 1954.5,1936.5C 1964.36,1965.42 1974.03,1994.42 1983.5,2023.5C 2014.49,2024.33 2045.49,2024.83 2076.5,2025C 2051.17,2043.67 2025.83,2062.33 2000.5,2081C 2010.63,2110.38 2020.13,2139.88 2029,2169.5C 2004.43,2150.8 1979.6,2132.47 1954.5,2114.5C 1928.89,2132.11 1903.56,2150.11 1878.5,2168.5C 1877.39,2167.28 1877.22,2165.94 1878,2164.5C 1887.8,2136.94 1897.3,2109.27 1906.5,2081.5C 1882.43,2062.43 1857.76,2044.1 1832.5,2026.5 Z"/></g>
<g><path style="opacity:1" fill="#fbfbfc" d="M 1403.5,1936.5 C 1404.93,1936.88 1405.76,1937.88 1406,1939.5C 1414.64,1967.76 1423.47,1995.92 1432.5,2024C 1463.83,2024.33 1495.17,2024.67 1526.5,2025C 1501.17,2043.67 1475.83,2062.33 1450.5,2081C 1460.63,2110.38 1470.13,2139.88 1479,2169.5C 1454.43,2150.8 1429.6,2132.47 1404.5,2114.5C 1379.19,2132.64 1354.03,2150.97 1329,2169.5C 1338.01,2139.81 1347.84,2110.31 1358.5,2081C 1333.17,2062.33 1307.83,2043.67 1282.5,2025C 1313.51,2024.83 1344.51,2024.33 1375.5,2023.5C 1385.24,1994.61 1394.57,1965.61 1403.5,1936.5 Z"/></g>
<g><path style="opacity:1" fill="#959cb1" d="M 273.5,2024.5 C 243.167,2025.17 212.833,2025.83 182.5,2026.5C 181.957,2026.44 181.624,2026.11 181.5,2025.5C 212.159,2024.5 242.826,2024.17 273.5,2024.5 Z"/></g>
<g><path style="opacity:1" fill="#959cb1" d="M 333.5,2024.5 C 364.507,2024.17 395.507,2024.5 426.5,2025.5C 426.376,2026.11 426.043,2026.44 425.5,2026.5C 394.833,2025.83 364.167,2025.17 333.5,2024.5 Z"/></g>
<g><path style="opacity:1" fill="#959cb1" d="M 883.5,2024.5 C 914.507,2024.17 945.507,2024.5 976.5,2025.5C 976.376,2026.11 976.043,2026.44 975.5,2026.5C 944.833,2025.83 914.167,2025.17 883.5,2024.5 Z"/></g>
<g><path style="opacity:1" fill="#959cb1" d="M 1923.5,2024.5 C 1893.17,2025.17 1862.83,2025.83 1832.5,2026.5C 1831.96,2026.44 1831.62,2026.11 1831.5,2025.5C 1862.16,2024.5 1892.83,2024.17 1923.5,2024.5 Z"/></g>
<g><path style="opacity:1" fill="#cf262b" d="M 2312.5,2123.5 C 3032.83,2123.5 3753.17,2123.5 4473.5,2123.5C 4481.49,2235.5 4481.49,2347.5 4473.5,2459.5C 3753.17,2459.5 3032.83,2459.5 2312.5,2459.5C 2312.5,2347.5 2312.5,2235.5 2312.5,2123.5 Z"/></g>
<g><path style="opacity:0.969" fill="#5e4f6e" d="M 2311.5,2123.5 C 2311.83,2123.5 2312.17,2123.5 2312.5,2123.5C 2312.5,2235.5 2312.5,2347.5 2312.5,2459.5C 1578,2460.5 843.334,2460.83 108.5,2460.5C 108.5,2457.83 108.5,2455.17 108.5,2452.5C 109.468,2454.61 109.802,2456.94 109.5,2459.5C 843.5,2459.5 1577.5,2459.5 2311.5,2459.5C 2311.5,2347.5 2311.5,2235.5 2311.5,2123.5 Z"/></g>
<g><path style="opacity:1" fill="#fdfdfd" d="M 2312.5,2459.5 C 3032.83,2459.5 3753.17,2459.5 4473.5,2459.5C 4464.9,2573.73 4447.24,2686.4 4420.5,2797.5C 3001.33,2796.5 1582,2796.17 162.5,2796.5C 136.062,2685.87 118.062,2573.87 108.5,2460.5C 843.334,2460.83 1578,2460.5 2312.5,2459.5 Z"/></g>
<g><path style="opacity:1" fill="#d0262b" d="M 162.5,2796.5 C 1582,2796.17 3001.33,2796.5 4420.5,2797.5C 4393.23,2912.65 4356.56,3024.65 4310.5,3133.5C 2964.5,3133.5 1618.5,3133.5 272.5,3133.5C 226.264,3024.46 189.598,2912.12 162.5,2796.5 Z"/></g>
<g><path style="opacity:1" fill="#fdfefd" d="M 272.5,3133.5 C 1618.5,3133.5 2964.5,3133.5 4310.5,3133.5C 4260.73,3251.41 4201.39,3363.74 4132.5,3470.5C 2905,3469.5 1677.33,3469.17 449.5,3469.5C 380.672,3363.2 321.672,3251.2 272.5,3133.5 Z"/></g>
<g><path style="opacity:1" fill="#d0262b" d="M 449.5,3469.5 C 1677.33,3469.17 2905,3469.5 4132.5,3470.5C 4055.82,3590.74 3967.82,3702.41 3868.5,3805.5C 2817.5,3805.5 1766.5,3805.5 715.5,3805.5C 615.037,3702.42 526.37,3590.42 449.5,3469.5 Z"/></g>
<g><path style="opacity:0.999" fill="#fdfdfd" d="M 715.5,3805.5 C 1766.5,3805.5 2817.5,3805.5 3868.5,3805.5C 3743.85,3935.24 3605.85,4047.58 3454.5,4142.5C 2679.17,4141.17 1903.83,4141.17 1128.5,4142.5C 977.313,4047.61 839.646,3935.27 715.5,3805.5 Z"/></g>
<g><path style="opacity:0.998" fill="#d0262b" d="M 1128.5,4142.5 C 1903.83,4141.17 2679.17,4141.17 3454.5,4142.5C 3188.19,4311.23 2898.19,4417.07 2584.5,4460C 2203.08,4509.99 1833.74,4463.99 1476.5,4322C 1354.83,4272.34 1238.83,4212.5 1128.5,4142.5 Z"/></g>
</svg>
