<?xml version="1.0" encoding="UTF-8"?>
<!DOCTYPE svg PUBLIC "-//W3C//DTD SVG 1.1//EN" "http://www.w3.org/Graphics/SVG/1.1/DTD/svg11.dtd">
<svg xmlns="http://www.w3.org/2000/svg" version="1.1" width="2000px" height="2000px" style="shape-rendering:geometricPrecision; text-rendering:geometricPrecision; image-rendering:optimizeQuality; fill-rule:evenodd; clip-rule:evenodd" xmlns:xlink="http://www.w3.org/1999/xlink">
<g><path style="opacity:1" fill="#49a146" d="M 953.5,-0.5 C 984.167,-0.5 1014.83,-0.5 1045.5,-0.5C 1309.4,15.3377 1533.9,116.671 1719,303.5C 1779.79,366.46 1831.29,436.126 1873.5,512.5C 1873.5,516.833 1873.5,521.167 1873.5,525.5C 1875.83,525.5 1878.17,525.5 1880.5,525.5C 1884.26,530.684 1887.26,536.35 1889.5,542.5C 1884.17,542.5 1878.83,542.5 1873.5,542.5C 1873.5,560.167 1873.5,577.833 1873.5,595.5C 1879.5,595.5 1885.5,595.5 1891.5,595.5C 1891.5,583.833 1891.5,572.167 1891.5,560.5C 1893.83,560.5 1896.17,560.5 1898.5,560.5C 1902.59,567.078 1905.92,574.078 1908.5,581.5C 1908.5,586.167 1908.5,590.833 1908.5,595.5C 1910.74,595.795 1912.74,595.461 1914.5,594.5C 1917.4,599.86 1919.74,605.527 1921.5,611.5C 1905.5,612.167 1889.5,612.833 1873.5,613.5C 1873.5,619.167 1873.5,624.833 1873.5,630.5C 1867.83,630.5 1862.17,630.5 1856.5,630.5C 1856.5,624.5 1856.5,618.5 1856.5,612.5C 1804.5,612.5 1752.5,612.5 1700.5,612.5C 1700.5,618.5 1700.5,624.5 1700.5,630.5C 1694.83,630.5 1689.17,630.5 1683.5,630.5C 1683.5,624.5 1683.5,618.5 1683.5,612.5C 1631.5,612.5 1579.5,612.5 1527.5,612.5C 1527.5,618.5 1527.5,624.5 1527.5,630.5C 1521.83,630.5 1516.17,630.5 1510.5,630.5C 1510.5,624.5 1510.5,618.5 1510.5,612.5C 1458.5,612.5 1406.5,612.5 1354.5,612.5C 1354.5,618.5 1354.5,624.5 1354.5,630.5C 1348.83,630.5 1343.17,630.5 1337.5,630.5C 1337.5,624.5 1337.5,618.5 1337.5,612.5C 1285.5,612.5 1233.5,612.5 1181.5,612.5C 1181.5,618.5 1181.5,624.5 1181.5,630.5C 1175.83,630.5 1170.17,630.5 1164.5,630.5C 1164.5,624.5 1164.5,618.5 1164.5,612.5C 1112.5,612.333 1060.5,612.5 1008.5,613C 1007.53,618.741 1007.19,624.575 1007.5,630.5C 1002.17,630.5 996.833,630.5 991.5,630.5C 991.808,624.575 991.475,618.741 990.5,613C 938.501,612.5 886.501,612.333 834.5,612.5C 834.5,618.5 834.5,624.5 834.5,630.5C 828.833,630.5 823.167,630.5 817.5,630.5C 817.5,624.5 817.5,618.5 817.5,612.5C 765.5,612.5 713.5,612.5 661.5,612.5C 661.5,618.5 661.5,624.5 661.5,630.5C 655.833,630.5 650.167,630.5 644.5,630.5C 644.5,624.5 644.5,618.5 644.5,612.5C 592.5,612.5 540.5,612.5 488.5,612.5C 488.5,618.5 488.5,624.5 488.5,630.5C 482.833,630.5 477.167,630.5 471.5,630.5C 471.5,624.5 471.5,618.5 471.5,612.5C 419.5,612.5 367.5,612.5 315.5,612.5C 315.5,618.5 315.5,624.5 315.5,630.5C 309.833,630.5 304.167,630.5 298.5,630.5C 298.5,624.5 298.5,618.5 298.5,612.5C 246.5,612.5 194.5,612.5 142.5,612.5C 142.5,618.5 142.5,624.5 142.5,630.5C 136.833,630.5 131.167,630.5 125.5,630.5C 125.5,624.833 125.5,619.167 125.5,613.5C 109.5,612.833 93.5,612.167 77.5,611.5C 79.3,606.101 81.3,600.768 83.5,595.5C 97.1667,595.5 110.833,595.5 124.5,595.5C 125.498,568.005 125.831,540.338 125.5,512.5C 167.333,436.533 218.666,367.533 279.5,305.5C 288.5,297.167 297.167,288.5 305.5,279.5C 433.441,155.824 584.441,71.9911 758.5,28C 822.782,12.5554 887.782,3.05539 953.5,-0.5 Z"/></g>
<g><path style="opacity:0.965" fill="#79b976" d="M 305.5,279.5 C 297.167,288.5 288.5,297.167 279.5,305.5C 286.907,296.588 294.907,288.088 303.5,280C 304.094,279.536 304.761,279.369 305.5,279.5 Z"/></g>
<g><path style="opacity:1" fill="#f5faf5" d="M 142.5,506.5 C 217.5,506.5 292.5,506.5 367.5,506.5C 367.5,512.833 367.5,519.167 367.5,525.5C 292.5,525.5 217.5,525.5 142.5,525.5C 142.5,519.167 142.5,512.833 142.5,506.5 Z"/></g>
<g><path style="opacity:1" fill="#fbfdfb" d="M 384.5,542.5 C 385.495,531.012 385.828,519.345 385.5,507.5C 390.833,507.5 396.167,507.5 401.5,507.5C 401.169,531.006 401.502,554.339 402.5,577.5C 408.167,577.5 413.833,577.5 419.5,577.5C 419.5,553.833 419.5,530.167 419.5,506.5C 425.425,506.192 431.259,506.525 437,507.5C 437.5,530.831 437.667,554.164 437.5,577.5C 442.833,577.5 448.167,577.5 453.5,577.5C 453.333,554.164 453.5,530.831 454,507.5C 459.741,506.525 465.575,506.192 471.5,506.5C 471.5,536.167 471.5,565.833 471.5,595.5C 442.5,595.5 413.5,595.5 384.5,595.5C 384.5,583.833 384.5,572.167 384.5,560.5C 367.5,560.5 350.5,560.5 333.5,560.5C 333.5,566.167 333.5,571.833 333.5,577.5C 344.833,577.5 356.167,577.5 367.5,577.5C 367.5,583.5 367.5,589.5 367.5,595.5C 350.167,595.5 332.833,595.5 315.5,595.5C 315.5,577.833 315.5,560.167 315.5,542.5C 338.5,542.5 361.5,542.5 384.5,542.5 Z"/></g>
<g><path style="opacity:1" fill="#cbe4ca" d="M 402.5,577.5 C 401.502,554.339 401.169,531.006 401.5,507.5C 396.167,507.5 390.833,507.5 385.5,507.5C 385.828,519.345 385.495,531.012 384.5,542.5C 384.5,530.5 384.5,518.5 384.5,506.5C 390.5,506.5 396.5,506.5 402.5,506.5C 402.5,530.167 402.5,553.833 402.5,577.5 Z"/></g>
<g><path style="opacity:1" fill="#f5faf5" d="M 488.5,506.5 C 563.501,506.333 638.501,506.5 713.5,507C 714.833,513 714.833,519 713.5,525C 638.501,525.5 563.501,525.667 488.5,525.5C 488.5,519.167 488.5,512.833 488.5,506.5 Z"/></g>
<g><path style="opacity:1" fill="#fdfefd" d="M 765.5,577.5 C 766.498,554.339 766.831,531.006 766.5,507.5C 771.833,507.5 777.167,507.5 782.5,507.5C 782.169,531.006 782.502,554.339 783.5,577.5C 789.167,577.5 794.833,577.5 800.5,577.5C 800.5,553.833 800.5,530.167 800.5,506.5C 806.167,506.5 811.833,506.5 817.5,506.5C 817.5,536.167 817.5,565.833 817.5,595.5C 788.5,595.5 759.5,595.5 730.5,595.5C 730.5,583.833 730.5,572.167 730.5,560.5C 713.5,560.5 696.5,560.5 679.5,560.5C 679.5,566.167 679.5,571.833 679.5,577.5C 690.654,578.495 701.988,578.828 713.5,578.5C 713.5,584.167 713.5,589.833 713.5,595.5C 696.167,595.5 678.833,595.5 661.5,595.5C 661.5,577.833 661.5,560.167 661.5,542.5C 684.833,542.5 708.167,542.5 731.5,542.5C 731.5,530.833 731.5,519.167 731.5,507.5C 736.975,506.511 742.642,506.178 748.5,506.5C 748.5,530.167 748.5,553.833 748.5,577.5C 754.167,577.5 759.833,577.5 765.5,577.5 Z"/></g>
<g><path style="opacity:1" fill="#cfe6ce" d="M 783.5,577.5 C 782.502,554.339 782.169,531.006 782.5,507.5C 777.167,507.5 771.833,507.5 766.5,507.5C 766.831,531.006 766.498,554.339 765.5,577.5C 765.5,553.833 765.5,530.167 765.5,506.5C 771.5,506.5 777.5,506.5 783.5,506.5C 783.5,530.167 783.5,553.833 783.5,577.5 Z"/></g>
<g><path style="opacity:1" fill="#f5faf5" d="M 834.5,506.5 C 909.833,506.5 985.167,506.5 1060.5,506.5C 1060.5,512.833 1060.5,519.167 1060.5,525.5C 985.167,525.5 909.833,525.5 834.5,525.5C 834.5,519.167 834.5,512.833 834.5,506.5 Z"/></g>
<g><path style="opacity:1" fill="#fcfdfc" d="M 1146.5,507.5 C 1152.17,507.5 1157.83,507.5 1163.5,507.5C 1163.5,536.833 1163.5,566.167 1163.5,595.5C 1134.83,595.5 1106.17,595.5 1077.5,595.5C 1077.5,583.833 1077.5,572.167 1077.5,560.5C 1060.17,560.5 1042.83,560.5 1025.5,560.5C 1025.5,566.167 1025.5,571.833 1025.5,577.5C 1036.65,578.495 1047.99,578.828 1059.5,578.5C 1059.5,584.167 1059.5,589.833 1059.5,595.5C 1042.17,595.5 1024.83,595.5 1007.5,595.5C 1007.17,577.659 1007.5,559.992 1008.5,542.5C 1031.5,542.5 1054.5,542.5 1077.5,542.5C 1077.5,530.833 1077.5,519.167 1077.5,507.5C 1082.98,506.511 1088.64,506.178 1094.5,506.5C 1094.5,530.167 1094.5,553.833 1094.5,577.5C 1100.17,577.5 1105.83,577.5 1111.5,577.5C 1111.33,554.164 1111.5,530.831 1112,507.5C 1117.74,506.525 1123.57,506.192 1129.5,506.5C 1129.5,530.167 1129.5,553.833 1129.5,577.5C 1135.17,577.5 1140.83,577.5 1146.5,577.5C 1146.5,554.167 1146.5,530.833 1146.5,507.5 Z"/></g>
<g><path style="opacity:1" fill="#cbe4ca" d="M 1146.5,507.5 C 1152.31,506.51 1158.31,506.177 1164.5,506.5C 1164.83,536.338 1164.5,566.005 1163.5,595.5C 1163.5,566.167 1163.5,536.833 1163.5,507.5C 1157.83,507.5 1152.17,507.5 1146.5,507.5 Z"/></g>
<g><path style="opacity:1" fill="#f5faf5" d="M 1181.5,506.5 C 1256.5,506.5 1331.5,506.5 1406.5,506.5C 1406.5,512.833 1406.5,519.167 1406.5,525.5C 1331.5,525.5 1256.5,525.5 1181.5,525.5C 1181.5,519.167 1181.5,512.833 1181.5,506.5 Z"/></g>
<g><path style="opacity:1" fill="#fdfefd" d="M 1492.5,577.5 C 1493.5,554.339 1493.83,531.006 1493.5,507.5C 1499.17,507.5 1504.83,507.5 1510.5,507.5C 1510.5,536.833 1510.5,566.167 1510.5,595.5C 1481.5,595.5 1452.5,595.5 1423.5,595.5C 1423.5,583.833 1423.5,572.167 1423.5,560.5C 1406.5,560.5 1389.5,560.5 1372.5,560.5C 1372.5,566.167 1372.5,571.833 1372.5,577.5C 1383.83,577.5 1395.17,577.5 1406.5,577.5C 1406.5,583.5 1406.5,589.5 1406.5,595.5C 1389.17,595.5 1371.83,595.5 1354.5,595.5C 1354.5,577.833 1354.5,560.167 1354.5,542.5C 1377.5,542.5 1400.5,542.5 1423.5,542.5C 1423.5,530.833 1423.5,519.167 1423.5,507.5C 1429.17,507.5 1434.83,507.5 1440.5,507.5C 1440.17,531.006 1440.5,554.339 1441.5,577.5C 1447.17,577.5 1452.83,577.5 1458.5,577.5C 1458.5,553.833 1458.5,530.167 1458.5,506.5C 1464.17,506.5 1469.83,506.5 1475.5,506.5C 1475.5,530.167 1475.5,553.833 1475.5,577.5C 1481.17,577.5 1486.83,577.5 1492.5,577.5 Z"/></g>
<g><path style="opacity:1" fill="#cae3c8" d="M 1423.5,507.5 C 1429.31,506.51 1435.31,506.177 1441.5,506.5C 1441.5,530.167 1441.5,553.833 1441.5,577.5C 1440.5,554.339 1440.17,531.006 1440.5,507.5C 1434.83,507.5 1429.17,507.5 1423.5,507.5 Z"/></g>
<g><path style="opacity:1" fill="#cae3c8" d="M 1510.5,507.5 C 1504.83,507.5 1499.17,507.5 1493.5,507.5C 1493.83,531.006 1493.5,554.339 1492.5,577.5C 1492.5,553.833 1492.5,530.167 1492.5,506.5C 1498.69,506.177 1504.69,506.51 1510.5,507.5 Z"/></g>
<g><path style="opacity:1" fill="#f5faf5" d="M 1527.5,506.5 C 1602.5,506.333 1677.5,506.5 1752.5,507C 1753.83,513 1753.83,519 1752.5,525C 1677.5,525.5 1602.5,525.667 1527.5,525.5C 1527.5,519.167 1527.5,512.833 1527.5,506.5 Z"/></g>
<g><path style="opacity:1" fill="#fcfdfc" d="M 1718.5,577.5 C 1729.65,578.495 1740.99,578.828 1752.5,578.5C 1752.5,584.167 1752.5,589.833 1752.5,595.5C 1735.17,595.5 1717.83,595.5 1700.5,595.5C 1700.5,577.833 1700.5,560.167 1700.5,542.5C 1723.83,542.5 1747.17,542.5 1770.5,542.5C 1770.5,530.833 1770.5,519.167 1770.5,507.5C 1775.98,506.511 1781.64,506.178 1787.5,506.5C 1787.5,530.167 1787.5,553.833 1787.5,577.5C 1793.17,577.5 1798.83,577.5 1804.5,577.5C 1804.5,553.833 1804.5,530.167 1804.5,506.5C 1810.43,506.192 1816.26,506.525 1822,507.5C 1822.5,530.831 1822.67,554.164 1822.5,577.5C 1828.17,577.5 1833.83,577.5 1839.5,577.5C 1839.5,553.833 1839.5,530.167 1839.5,506.5C 1845.17,506.5 1850.83,506.5 1856.5,506.5C 1856.5,536.167 1856.5,565.833 1856.5,595.5C 1827.5,595.5 1798.5,595.5 1769.5,595.5C 1769.5,583.833 1769.5,572.167 1769.5,560.5C 1752.5,560.5 1735.5,560.5 1718.5,560.5C 1718.5,566.167 1718.5,571.833 1718.5,577.5 Z"/></g>
<g><path style="opacity:1" fill="#d1e7d0" d="M 125.5,512.5 C 125.831,540.338 125.498,568.005 124.5,595.5C 124.831,568.995 124.498,542.661 123.5,516.5C 123.66,514.847 124.326,513.514 125.5,512.5 Z"/></g>
<g><path style="opacity:1" fill="#fcfdfb" d="M 123.5,516.5 C 124.498,542.661 124.831,568.995 124.5,595.5C 110.833,595.5 97.1667,595.5 83.5,595.5C 86.1301,589.251 89.1301,583.251 92.5,577.5C 97.5,577.5 102.5,577.5 107.5,577.5C 107.5,567.167 107.5,556.833 107.5,546.5C 112.328,536.175 117.661,526.175 123.5,516.5 Z"/></g>
<g><path style="opacity:1" fill="#e1f0e1" d="M 1873.5,512.5 C 1876.23,516.577 1878.56,520.91 1880.5,525.5C 1878.17,525.5 1875.83,525.5 1873.5,525.5C 1873.5,521.167 1873.5,516.833 1873.5,512.5 Z"/></g>
<g><path style="opacity:1" fill="#82be7f" d="M 731.5,507.5 C 731.5,519.167 731.5,530.833 731.5,542.5C 708.167,542.5 684.833,542.5 661.5,542.5C 684.327,541.502 707.327,541.169 730.5,541.5C 730.172,529.988 730.505,518.654 731.5,507.5 Z"/></g>
<g><path style="opacity:1" fill="#77b974" d="M 1077.5,507.5 C 1077.5,519.167 1077.5,530.833 1077.5,542.5C 1054.5,542.5 1031.5,542.5 1008.5,542.5C 1030.99,541.503 1053.66,541.169 1076.5,541.5C 1076.17,529.988 1076.51,518.654 1077.5,507.5 Z"/></g>
<g><path style="opacity:1" fill="#82be7f" d="M 1770.5,507.5 C 1770.5,519.167 1770.5,530.833 1770.5,542.5C 1747.17,542.5 1723.83,542.5 1700.5,542.5C 1723.33,541.502 1746.33,541.169 1769.5,541.5C 1769.17,529.988 1769.51,518.654 1770.5,507.5 Z"/></g>
<g><path style="opacity:1" fill="#fcfdfc" d="M 280.5,560.5 C 269.346,559.505 258.012,559.172 246.5,559.5C 246.5,553.833 246.5,548.167 246.5,542.5C 263.833,542.5 281.167,542.5 298.5,542.5C 298.5,560.167 298.5,577.833 298.5,595.5C 269.5,595.5 240.5,595.5 211.5,595.5C 211.5,583.833 211.5,572.167 211.5,560.5C 194.167,560.5 176.833,560.5 159.5,560.5C 159.5,572.167 159.5,583.833 159.5,595.5C 153.833,595.5 148.167,595.5 142.5,595.5C 142.5,577.833 142.5,560.167 142.5,542.5C 171.5,542.5 200.5,542.5 229.5,542.5C 229.5,554.167 229.5,565.833 229.5,577.5C 246.5,577.5 263.5,577.5 280.5,577.5C 280.5,571.833 280.5,566.167 280.5,560.5 Z"/></g>
<g><path style="opacity:1" fill="#fcfdfc" d="M 488.5,542.5 C 517.5,542.5 546.5,542.5 575.5,542.5C 575.5,554.167 575.5,565.833 575.5,577.5C 592.5,577.5 609.5,577.5 626.5,577.5C 626.5,571.833 626.5,566.167 626.5,560.5C 615.167,560.5 603.833,560.5 592.5,560.5C 592.5,554.5 592.5,548.5 592.5,542.5C 609.833,542.5 627.167,542.5 644.5,542.5C 644.5,560.167 644.5,577.833 644.5,595.5C 615.5,595.5 586.5,595.5 557.5,595.5C 557.5,583.833 557.5,572.167 557.5,560.5C 540.5,560.5 523.5,560.5 506.5,560.5C 506.5,572.167 506.5,583.833 506.5,595.5C 500.5,595.5 494.5,595.5 488.5,595.5C 488.5,577.833 488.5,560.167 488.5,542.5 Z"/></g>
<g><path style="opacity:1" fill="#fcfdfc" d="M 973.5,560.5 C 962.346,559.505 951.012,559.172 939.5,559.5C 939.5,553.833 939.5,548.167 939.5,542.5C 956.833,542.5 974.167,542.5 991.5,542.5C 991.5,560.167 991.5,577.833 991.5,595.5C 962.5,595.5 933.5,595.5 904.5,595.5C 904.5,583.833 904.5,572.167 904.5,560.5C 887.167,560.5 869.833,560.5 852.5,560.5C 852.5,572.167 852.5,583.833 852.5,595.5C 846.5,595.5 840.5,595.5 834.5,595.5C 834.5,577.833 834.5,560.167 834.5,542.5C 863.5,542.5 892.5,542.5 921.5,542.5C 921.5,554.167 921.5,565.833 921.5,577.5C 938.833,577.5 956.167,577.5 973.5,577.5C 973.5,571.833 973.5,566.167 973.5,560.5 Z"/></g>
<g><path style="opacity:1" fill="#fcfdfc" d="M 1319.5,560.5 C 1308.35,559.505 1297.01,559.172 1285.5,559.5C 1285.5,553.833 1285.5,548.167 1285.5,542.5C 1302.83,542.5 1320.17,542.5 1337.5,542.5C 1337.5,560.167 1337.5,577.833 1337.5,595.5C 1308.5,595.5 1279.5,595.5 1250.5,595.5C 1250.5,583.833 1250.5,572.167 1250.5,560.5C 1233.17,560.5 1215.83,560.5 1198.5,560.5C 1198.5,572.167 1198.5,583.833 1198.5,595.5C 1192.83,595.5 1187.17,595.5 1181.5,595.5C 1181.5,577.833 1181.5,560.167 1181.5,542.5C 1210.5,542.5 1239.5,542.5 1268.5,542.5C 1268.5,554.167 1268.5,565.833 1268.5,577.5C 1285.5,577.5 1302.5,577.5 1319.5,577.5C 1319.5,571.833 1319.5,566.167 1319.5,560.5 Z"/></g>
<g><path style="opacity:1" fill="#fcfdfc" d="M 1527.5,542.5 C 1556.5,542.5 1585.5,542.5 1614.5,542.5C 1614.5,554.167 1614.5,565.833 1614.5,577.5C 1631.5,577.5 1648.5,577.5 1665.5,577.5C 1665.5,571.833 1665.5,566.167 1665.5,560.5C 1654.17,560.5 1642.83,560.5 1631.5,560.5C 1631.5,554.5 1631.5,548.5 1631.5,542.5C 1648.83,542.5 1666.17,542.5 1683.5,542.5C 1683.5,560.167 1683.5,577.833 1683.5,595.5C 1654.5,595.5 1625.5,595.5 1596.5,595.5C 1596.5,583.833 1596.5,572.167 1596.5,560.5C 1579.5,560.5 1562.5,560.5 1545.5,560.5C 1545.5,572.167 1545.5,583.833 1545.5,595.5C 1539.5,595.5 1533.5,595.5 1527.5,595.5C 1527.5,577.833 1527.5,560.167 1527.5,542.5 Z"/></g>
<g><path style="opacity:1" fill="#fafcf9" d="M 1889.5,542.5 C 1893.01,548.182 1896.01,554.182 1898.5,560.5C 1896.17,560.5 1893.83,560.5 1891.5,560.5C 1891.5,572.167 1891.5,583.833 1891.5,595.5C 1885.5,595.5 1879.5,595.5 1873.5,595.5C 1873.5,577.833 1873.5,560.167 1873.5,542.5C 1878.83,542.5 1884.17,542.5 1889.5,542.5 Z"/></g>
<g><path style="opacity:1" fill="#50a44c" d="M 107.5,546.5 C 107.5,556.833 107.5,567.167 107.5,577.5C 102.5,577.5 97.5,577.5 92.5,577.5C 96.7188,566.731 101.719,556.397 107.5,546.5 Z"/></g>
<g><path style="opacity:1" fill="#c5e1c4" d="M 246.5,542.5 C 246.5,548.167 246.5,553.833 246.5,559.5C 258.012,559.172 269.346,559.505 280.5,560.5C 268.833,560.5 257.167,560.5 245.5,560.5C 245.177,554.31 245.51,548.31 246.5,542.5 Z"/></g>
<g><path style="opacity:1" fill="#d1e7d0" d="M 939.5,542.5 C 939.5,548.167 939.5,553.833 939.5,559.5C 951.012,559.172 962.346,559.505 973.5,560.5C 961.833,560.5 950.167,560.5 938.5,560.5C 938.177,554.31 938.51,548.31 939.5,542.5 Z"/></g>
<g><path style="opacity:1" fill="#c5e1c4" d="M 1285.5,542.5 C 1285.5,548.167 1285.5,553.833 1285.5,559.5C 1297.01,559.172 1308.35,559.505 1319.5,560.5C 1307.83,560.5 1296.17,560.5 1284.5,560.5C 1284.18,554.31 1284.51,548.31 1285.5,542.5 Z"/></g>
<g><path style="opacity:1" fill="#c5e1c4" d="M 679.5,577.5 C 691.167,577.5 702.833,577.5 714.5,577.5C 714.823,583.69 714.49,589.69 713.5,595.5C 713.5,589.833 713.5,584.167 713.5,578.5C 701.988,578.828 690.654,578.495 679.5,577.5 Z"/></g>
<g><path style="opacity:1" fill="#d1e7d0" d="M 1025.5,577.5 C 1037.17,577.5 1048.83,577.5 1060.5,577.5C 1060.82,583.69 1060.49,589.69 1059.5,595.5C 1059.5,589.833 1059.5,584.167 1059.5,578.5C 1047.99,578.828 1036.65,578.495 1025.5,577.5 Z"/></g>
<g><path style="opacity:1" fill="#c5e1c4" d="M 1718.5,577.5 C 1730.17,577.5 1741.83,577.5 1753.5,577.5C 1753.82,583.69 1753.49,589.69 1752.5,595.5C 1752.5,589.833 1752.5,584.167 1752.5,578.5C 1740.99,578.828 1729.65,578.495 1718.5,577.5 Z"/></g>
<g><path style="opacity:1" fill="#f7fbf7" d="M 176.5,577.5 C 182.5,577.5 188.5,577.5 194.5,577.5C 194.5,583.5 194.5,589.5 194.5,595.5C 188.5,595.5 182.5,595.5 176.5,595.5C 176.5,589.5 176.5,583.5 176.5,577.5 Z"/></g>
<g><path style="opacity:1" fill="#fcfdfc" d="M 523.5,577.5 C 529.167,577.5 534.833,577.5 540.5,577.5C 540.5,583.5 540.5,589.5 540.5,595.5C 534.833,595.5 529.167,595.5 523.5,595.5C 523.5,589.5 523.5,583.5 523.5,577.5 Z"/></g>
<g><path style="opacity:1" fill="#f7fbf7" d="M 869.5,577.5 C 875.5,577.5 881.5,577.5 887.5,577.5C 887.5,583.5 887.5,589.5 887.5,595.5C 881.5,595.5 875.5,595.5 869.5,595.5C 869.5,589.5 869.5,583.5 869.5,577.5 Z"/></g>
<g><path style="opacity:1" fill="#d1e7d0" d="M 1233.5,578.5 C 1227.83,578.5 1222.17,578.5 1216.5,578.5C 1216.5,584.167 1216.5,589.833 1216.5,595.5C 1215.51,589.69 1215.18,583.69 1215.5,577.5C 1221.69,577.177 1227.69,577.51 1233.5,578.5 Z"/></g>
<g><path style="opacity:1" fill="#fefffe" d="M 1233.5,578.5 C 1233.5,584.167 1233.5,589.833 1233.5,595.5C 1227.83,595.5 1222.17,595.5 1216.5,595.5C 1216.5,589.833 1216.5,584.167 1216.5,578.5C 1222.17,578.5 1227.83,578.5 1233.5,578.5 Z"/></g>
<g><path style="opacity:1" fill="#f7fbf7" d="M 1561.5,577.5 C 1567.5,577.5 1573.5,577.5 1579.5,577.5C 1579.5,583.5 1579.5,589.5 1579.5,595.5C 1573.5,595.5 1567.5,595.5 1561.5,595.5C 1561.5,589.5 1561.5,583.5 1561.5,577.5 Z"/></g>
<g><path style="opacity:1" fill="#f3f9f3" d="M 1908.5,581.5 C 1910.74,585.645 1912.74,589.978 1914.5,594.5C 1912.74,595.461 1910.74,595.795 1908.5,595.5C 1908.5,590.833 1908.5,586.167 1908.5,581.5 Z"/></g>
<g><path style="opacity:0.999" fill="#a3cfa2" d="M 77.5,611.5 C 93.5,612.167 109.5,612.833 125.5,613.5C 109.167,613.5 92.8333,613.5 76.5,613.5C 76.3284,612.508 76.6618,611.842 77.5,611.5 Z"/></g>
<g><path style="opacity:0.999" fill="#a3cfa2" d="M 1921.5,611.5 C 1922.34,611.842 1922.67,612.508 1922.5,613.5C 1906.17,613.5 1889.83,613.5 1873.5,613.5C 1889.5,612.833 1905.5,612.167 1921.5,611.5 Z"/></g>
<g><path style="opacity:1" fill="#fefefe" d="M 1873.5,613.5 C 1889.83,613.5 1906.17,613.5 1922.5,613.5C 1968.06,722.293 1993.73,835.626 1999.5,953.5C 1999.5,984.167 1999.5,1014.83 1999.5,1045.5C 1993.73,1163.37 1968.06,1276.71 1922.5,1385.5C 1906.17,1385.5 1889.83,1385.5 1873.5,1385.5C 1873.5,1379.83 1873.5,1374.17 1873.5,1368.5C 1868.02,1367.51 1862.36,1367.18 1856.5,1367.5C 1856.5,1373.5 1856.5,1379.5 1856.5,1385.5C 1804.67,1386.5 1752.67,1386.83 1700.5,1386.5C 1700.5,1380.5 1700.5,1374.5 1700.5,1368.5C 1694.83,1368.5 1689.17,1368.5 1683.5,1368.5C 1683.5,1374.5 1683.5,1380.5 1683.5,1386.5C 1631.5,1386.5 1579.5,1386.5 1527.5,1386.5C 1527.5,1380.5 1527.5,1374.5 1527.5,1368.5C 1521.83,1368.5 1516.17,1368.5 1510.5,1368.5C 1510.5,1374.5 1510.5,1380.5 1510.5,1386.5C 1458.33,1386.83 1406.33,1386.5 1354.5,1385.5C 1354.5,1379.5 1354.5,1373.5 1354.5,1367.5C 1348.64,1367.18 1342.98,1367.51 1337.5,1368.5C 1337.5,1374.5 1337.5,1380.5 1337.5,1386.5C 1285.33,1386.83 1233.33,1386.5 1181.5,1385.5C 1181.5,1379.5 1181.5,1373.5 1181.5,1367.5C 1175.64,1367.18 1169.98,1367.51 1164.5,1368.5C 1164.5,1374.5 1164.5,1380.5 1164.5,1386.5C 1112.5,1386.67 1060.5,1386.5 1008.5,1386C 1007.53,1380.26 1007.19,1374.43 1007.5,1368.5C 1002.17,1368.5 996.833,1368.5 991.5,1368.5C 991.808,1374.43 991.475,1380.26 990.5,1386C 938.501,1386.5 886.501,1386.67 834.5,1386.5C 834.5,1380.5 834.5,1374.5 834.5,1368.5C 829.025,1367.51 823.358,1367.18 817.5,1367.5C 817.5,1373.5 817.5,1379.5 817.5,1385.5C 765.669,1386.5 713.669,1386.83 661.5,1386.5C 661.5,1380.5 661.5,1374.5 661.5,1368.5C 656.025,1367.51 650.358,1367.18 644.5,1367.5C 644.5,1373.5 644.5,1379.5 644.5,1385.5C 592.669,1386.5 540.669,1386.83 488.5,1386.5C 488.5,1380.5 488.5,1374.5 488.5,1368.5C 482.833,1368.5 477.167,1368.5 471.5,1368.5C 471.5,1374.5 471.5,1380.5 471.5,1386.5C 419.5,1386.5 367.5,1386.5 315.5,1386.5C 315.5,1380.5 315.5,1374.5 315.5,1368.5C 309.833,1368.5 304.167,1368.5 298.5,1368.5C 298.5,1374.5 298.5,1380.5 298.5,1386.5C 246.331,1386.83 194.331,1386.5 142.5,1385.5C 142.5,1379.5 142.5,1373.5 142.5,1367.5C 136.642,1367.18 130.975,1367.51 125.5,1368.5C 125.5,1374.17 125.5,1379.83 125.5,1385.5C 109.167,1385.5 92.8333,1385.5 76.5,1385.5C 30.9406,1276.71 5.27389,1163.37 -0.5,1045.5C -0.5,1014.83 -0.5,984.167 -0.5,953.5C 5.27389,835.626 30.9406,722.293 76.5,613.5C 92.8333,613.5 109.167,613.5 125.5,613.5C 125.5,619.167 125.5,624.833 125.5,630.5C 131.167,630.5 136.833,630.5 142.5,630.5C 142.5,624.5 142.5,618.5 142.5,612.5C 194.5,612.5 246.5,612.5 298.5,612.5C 298.5,618.5 298.5,624.5 298.5,630.5C 304.167,630.5 309.833,630.5 315.5,630.5C 315.5,624.5 315.5,618.5 315.5,612.5C 367.5,612.5 419.5,612.5 471.5,612.5C 471.5,618.5 471.5,624.5 471.5,630.5C 477.167,630.5 482.833,630.5 488.5,630.5C 488.5,624.5 488.5,618.5 488.5,612.5C 540.5,612.5 592.5,612.5 644.5,612.5C 644.5,618.5 644.5,624.5 644.5,630.5C 650.167,630.5 655.833,630.5 661.5,630.5C 661.5,624.5 661.5,618.5 661.5,612.5C 713.5,612.5 765.5,612.5 817.5,612.5C 817.5,618.5 817.5,624.5 817.5,630.5C 823.167,630.5 828.833,630.5 834.5,630.5C 834.5,624.5 834.5,618.5 834.5,612.5C 886.501,612.333 938.501,612.5 990.5,613C 991.475,618.741 991.808,624.575 991.5,630.5C 996.833,630.5 1002.17,630.5 1007.5,630.5C 1007.19,624.575 1007.53,618.741 1008.5,613C 1060.5,612.5 1112.5,612.333 1164.5,612.5C 1164.5,618.5 1164.5,624.5 1164.5,630.5C 1170.17,630.5 1175.83,630.5 1181.5,630.5C 1181.5,624.5 1181.5,618.5 1181.5,612.5C 1233.5,612.5 1285.5,612.5 1337.5,612.5C 1337.5,618.5 1337.5,624.5 1337.5,630.5C 1343.17,630.5 1348.83,630.5 1354.5,630.5C 1354.5,624.5 1354.5,618.5 1354.5,612.5C 1406.5,612.5 1458.5,612.5 1510.5,612.5C 1510.5,618.5 1510.5,624.5 1510.5,630.5C 1516.17,630.5 1521.83,630.5 1527.5,630.5C 1527.5,624.5 1527.5,618.5 1527.5,612.5C 1579.5,612.5 1631.5,612.5 1683.5,612.5C 1683.5,618.5 1683.5,624.5 1683.5,630.5C 1689.17,630.5 1694.83,630.5 1700.5,630.5C 1700.5,624.5 1700.5,618.5 1700.5,612.5C 1752.5,612.5 1804.5,612.5 1856.5,612.5C 1856.5,618.5 1856.5,624.5 1856.5,630.5C 1862.17,630.5 1867.83,630.5 1873.5,630.5C 1873.5,624.833 1873.5,619.167 1873.5,613.5 Z"/></g>
<g><path style="opacity:1" fill="#c62328" d="M 918.5,676.5 C 940.963,705.192 967.963,710.192 999.5,691.5C 1022.84,706.568 1045.84,706.068 1068.5,690C 1073.08,686.088 1076.92,681.588 1080,676.5C 1085.07,704.195 1074.57,723.361 1048.5,734C 1029.96,739.448 1013.63,735.615 999.5,722.5C 978.148,740.279 956.148,741.112 933.5,725C 919.738,711.548 914.738,695.382 918.5,676.5 Z"/></g>
<g><path style="opacity:1" fill="#c62227" d="M 1034.5,1175.5 C 1033.34,1185.32 1033.18,1195.32 1034,1205.5C 1034.72,1204.96 1035.22,1204.29 1035.5,1203.5C 1103.8,1150.62 1145.3,1081.29 1160,995.5C 1172.95,905.294 1153.28,823.294 1101,749.5C 1174.46,810.769 1212.3,889.435 1214.5,985.5C 1213.43,1079.12 1178.1,1156.96 1108.5,1219C 1092.6,1232.23 1075.6,1243.9 1057.5,1254C 1083.28,1263.44 1109.95,1269.11 1137.5,1271C 1157.85,1271.54 1178.18,1271.54 1198.5,1271C 1144.73,1291.58 1089.56,1296.74 1033,1286.5C 1032.56,1289.61 1031.22,1292.28 1029,1294.5C 1019.32,1305.67 1009.49,1316.67 999.5,1327.5C 988.206,1315.58 977.372,1303.25 967,1290.5C 966.51,1289.21 966.343,1287.87 966.5,1286.5C 909.65,1297.31 854.317,1292.14 800.5,1271C 848.745,1275.25 895.745,1269.58 941.5,1254C 860.822,1207.61 810.322,1138.77 790,1047.5C 770.868,933.894 803.035,837.728 886.5,759C 889.667,756.5 892.833,754 896,751.5C 878.005,778.486 863.339,807.486 852,838.5C 819.061,945.779 834.394,1045.45 898,1137.5C 916.668,1162.67 938.502,1184.67 963.5,1203.5C 963.783,1204.29 964.283,1204.96 965,1205.5C 965.826,1193.99 965.659,1182.66 964.5,1171.5C 962.743,1035.5 961.243,899.5 960,763.5C 973.049,752.943 986.216,742.61 999.5,732.5C 1012.78,742.61 1025.95,752.943 1039,763.5C 1037.76,900.833 1036.26,1038.17 1034.5,1175.5 Z"/></g>
<g><path style="opacity:1" fill="#c62228" d="M 857.5,739.5 C 858.552,739.351 859.552,739.517 860.5,740C 788.02,793.926 744.186,865.759 729,955.5C 716.793,1054.43 741.627,1142.1 803.5,1218.5C 726.662,1174.24 682.162,1107.9 670,1019.5C 662.374,912.247 702.874,828.747 791.5,769C 812.486,756.669 834.486,746.836 857.5,739.5 Z"/></g>
<g><path style="opacity:1" fill="#c62228" d="M 1138.5,740.5 C 1138.74,739.903 1139.24,739.57 1140,739.5C 1218.19,763.421 1274.53,812.421 1309,886.5C 1343.78,973.769 1336.12,1057.1 1286,1136.5C 1262.27,1171.07 1232.1,1198.4 1195.5,1218.5C 1266.37,1130.03 1288.54,1030.03 1262,918.5C 1241.28,844.641 1200.11,785.308 1138.5,740.5 Z"/></g>
<g><path style="opacity:1" fill="#e7a0a2" d="M 1034.5,1175.5 C 1034.17,1185.01 1034.51,1194.35 1035.5,1203.5C 1035.22,1204.29 1034.72,1204.96 1034,1205.5C 1033.18,1195.32 1033.34,1185.32 1034.5,1175.5 Z"/></g>
<g><path style="opacity:1" fill="#ecb2b4" d="M 964.5,1171.5 C 965.659,1182.66 965.826,1193.99 965,1205.5C 964.283,1204.96 963.783,1204.29 963.5,1203.5C 964.494,1193.01 964.828,1182.35 964.5,1171.5 Z"/></g>
<g><path style="opacity:1" fill="#c62127" d="M 125.5,1368.5 C 130.833,1368.5 136.167,1368.5 141.5,1368.5C 141.178,1374.36 141.511,1380.02 142.5,1385.5C 194.331,1386.5 246.331,1386.83 298.5,1386.5C 298.5,1380.5 298.5,1374.5 298.5,1368.5C 304.167,1368.5 309.833,1368.5 315.5,1368.5C 315.5,1374.5 315.5,1380.5 315.5,1386.5C 367.5,1386.5 419.5,1386.5 471.5,1386.5C 471.5,1380.5 471.5,1374.5 471.5,1368.5C 477.167,1368.5 482.833,1368.5 488.5,1368.5C 488.5,1374.5 488.5,1380.5 488.5,1386.5C 540.669,1386.83 592.669,1386.5 644.5,1385.5C 645.489,1380.02 645.822,1374.36 645.5,1368.5C 650.833,1368.5 656.167,1368.5 661.5,1368.5C 661.5,1374.5 661.5,1380.5 661.5,1386.5C 713.669,1386.83 765.669,1386.5 817.5,1385.5C 818.489,1380.02 818.822,1374.36 818.5,1368.5C 823.833,1368.5 829.167,1368.5 834.5,1368.5C 834.5,1374.5 834.5,1380.5 834.5,1386.5C 886.501,1386.67 938.501,1386.5 990.5,1386C 991.475,1380.26 991.808,1374.43 991.5,1368.5C 996.833,1368.5 1002.17,1368.5 1007.5,1368.5C 1007.19,1374.43 1007.53,1380.26 1008.5,1386C 1060.5,1386.5 1112.5,1386.67 1164.5,1386.5C 1164.5,1380.5 1164.5,1374.5 1164.5,1368.5C 1169.83,1368.5 1175.17,1368.5 1180.5,1368.5C 1180.18,1374.36 1180.51,1380.02 1181.5,1385.5C 1233.33,1386.5 1285.33,1386.83 1337.5,1386.5C 1337.5,1380.5 1337.5,1374.5 1337.5,1368.5C 1342.83,1368.5 1348.17,1368.5 1353.5,1368.5C 1353.18,1374.36 1353.51,1380.02 1354.5,1385.5C 1406.33,1386.5 1458.33,1386.83 1510.5,1386.5C 1510.5,1380.5 1510.5,1374.5 1510.5,1368.5C 1516.17,1368.5 1521.83,1368.5 1527.5,1368.5C 1527.5,1374.5 1527.5,1380.5 1527.5,1386.5C 1579.5,1386.5 1631.5,1386.5 1683.5,1386.5C 1683.5,1380.5 1683.5,1374.5 1683.5,1368.5C 1689.17,1368.5 1694.83,1368.5 1700.5,1368.5C 1700.5,1374.5 1700.5,1380.5 1700.5,1386.5C 1752.67,1386.83 1804.67,1386.5 1856.5,1385.5C 1857.49,1380.02 1857.82,1374.36 1857.5,1368.5C 1862.83,1368.5 1868.17,1368.5 1873.5,1368.5C 1873.5,1374.17 1873.5,1379.83 1873.5,1385.5C 1889.5,1386.17 1905.5,1386.83 1921.5,1387.5C 1919.89,1392.65 1917.89,1397.65 1915.5,1402.5C 1901.58,1403.48 1887.58,1403.82 1873.5,1403.5C 1873.5,1409.5 1873.5,1415.5 1873.5,1421.5C 1884.5,1421.5 1895.5,1421.5 1906.5,1421.5C 1904.62,1427.6 1901.95,1433.26 1898.5,1438.5C 1890.17,1438.5 1881.83,1438.5 1873.5,1438.5C 1873.5,1454.5 1873.5,1470.5 1873.5,1486.5C 1766.21,1676.61 1613.55,1817.78 1415.5,1910C 1297.74,1963.11 1174.4,1992.94 1045.5,1999.5C 1014.83,1999.5 984.167,1999.5 953.5,1999.5C 710.739,1985.4 499.739,1897.23 320.5,1735C 241.972,1662.36 176.972,1579.53 125.5,1486.5C 125.831,1458.66 125.498,1430.99 124.5,1403.5C 119.167,1403.5 113.833,1403.5 108.5,1403.5C 107.833,1419.5 107.167,1435.5 106.5,1451.5C 100.623,1440.41 95.2894,1429.08 90.5,1417.5C 90.5,1412.83 90.5,1408.17 90.5,1403.5C 88.0504,1403.7 85.717,1403.37 83.5,1402.5C 81.1066,1397.65 79.1066,1392.65 77.5,1387.5C 93.5,1386.83 109.5,1386.17 125.5,1385.5C 125.5,1379.83 125.5,1374.17 125.5,1368.5 Z"/></g>
<g><path style="opacity:1" fill="#d96c6f" d="M 125.5,1368.5 C 130.975,1367.51 136.642,1367.18 142.5,1367.5C 142.5,1373.5 142.5,1379.5 142.5,1385.5C 141.511,1380.02 141.178,1374.36 141.5,1368.5C 136.167,1368.5 130.833,1368.5 125.5,1368.5 Z"/></g>
<g><path style="opacity:1" fill="#d96c6f" d="M 661.5,1368.5 C 656.167,1368.5 650.833,1368.5 645.5,1368.5C 645.822,1374.36 645.489,1380.02 644.5,1385.5C 644.5,1379.5 644.5,1373.5 644.5,1367.5C 650.358,1367.18 656.025,1367.51 661.5,1368.5 Z"/></g>
<g><path style="opacity:1" fill="#d96c6f" d="M 834.5,1368.5 C 829.167,1368.5 823.833,1368.5 818.5,1368.5C 818.822,1374.36 818.489,1380.02 817.5,1385.5C 817.5,1379.5 817.5,1373.5 817.5,1367.5C 823.358,1367.18 829.025,1367.51 834.5,1368.5 Z"/></g>
<g><path style="opacity:1" fill="#d96c6f" d="M 1164.5,1368.5 C 1169.98,1367.51 1175.64,1367.18 1181.5,1367.5C 1181.5,1373.5 1181.5,1379.5 1181.5,1385.5C 1180.51,1380.02 1180.18,1374.36 1180.5,1368.5C 1175.17,1368.5 1169.83,1368.5 1164.5,1368.5 Z"/></g>
<g><path style="opacity:1" fill="#d96c6f" d="M 1337.5,1368.5 C 1342.98,1367.51 1348.64,1367.18 1354.5,1367.5C 1354.5,1373.5 1354.5,1379.5 1354.5,1385.5C 1353.51,1380.02 1353.18,1374.36 1353.5,1368.5C 1348.17,1368.5 1342.83,1368.5 1337.5,1368.5 Z"/></g>
<g><path style="opacity:1" fill="#d96c6f" d="M 1873.5,1368.5 C 1868.17,1368.5 1862.83,1368.5 1857.5,1368.5C 1857.82,1374.36 1857.49,1380.02 1856.5,1385.5C 1856.5,1379.5 1856.5,1373.5 1856.5,1367.5C 1862.36,1367.18 1868.02,1367.51 1873.5,1368.5 Z"/></g>
<g><path style="opacity:0.999" fill="#e28f92" d="M 76.5,1385.5 C 92.8333,1385.5 109.167,1385.5 125.5,1385.5C 109.5,1386.17 93.5,1386.83 77.5,1387.5C 76.6618,1387.16 76.3284,1386.49 76.5,1385.5 Z"/></g>
<g><path style="opacity:0.999" fill="#e28f92" d="M 1873.5,1385.5 C 1889.83,1385.5 1906.17,1385.5 1922.5,1385.5C 1922.67,1386.49 1922.34,1387.16 1921.5,1387.5C 1905.5,1386.83 1889.5,1386.17 1873.5,1385.5 Z"/></g>
<g><path style="opacity:1" fill="#faebeb" d="M 83.5,1402.5 C 85.717,1403.37 88.0504,1403.7 90.5,1403.5C 90.5,1408.17 90.5,1412.83 90.5,1417.5C 87.9302,1412.69 85.5968,1407.69 83.5,1402.5 Z"/></g>
<g><path style="opacity:1" fill="#f0c5c7" d="M 108.5,1403.5 C 108.5,1420.5 108.5,1437.5 108.5,1454.5C 107.599,1453.71 106.932,1452.71 106.5,1451.5C 107.167,1435.5 107.833,1419.5 108.5,1403.5 Z"/></g>
<g><path style="opacity:1" fill="#fefdfd" d="M 108.5,1403.5 C 113.833,1403.5 119.167,1403.5 124.5,1403.5C 124.831,1430.01 124.498,1456.34 123.5,1482.5C 117.995,1473.49 112.995,1464.16 108.5,1454.5C 108.5,1437.5 108.5,1420.5 108.5,1403.5 Z"/></g>
<g><path style="opacity:1" fill="#f0c7c9" d="M 124.5,1403.5 C 125.498,1430.99 125.831,1458.66 125.5,1486.5C 124.326,1485.49 123.66,1484.15 123.5,1482.5C 124.498,1456.34 124.831,1430.01 124.5,1403.5 Z"/></g>
<g><path style="opacity:1" fill="#fefffe" d="M 142.5,1403.5 C 217.5,1403.5 292.5,1403.5 367.5,1403.5C 367.5,1409.5 367.5,1415.5 367.5,1421.5C 292.5,1421.5 217.5,1421.5 142.5,1421.5C 142.5,1415.5 142.5,1409.5 142.5,1403.5 Z"/></g>
<g><path style="opacity:1" fill="#fefbfb" d="M 402.5,1473.5 C 407.975,1474.49 413.642,1474.82 419.5,1474.5C 419.5,1450.83 419.5,1427.17 419.5,1403.5C 425.167,1403.5 430.833,1403.5 436.5,1403.5C 436.5,1427.17 436.5,1450.83 436.5,1474.5C 442.5,1474.5 448.5,1474.5 454.5,1474.5C 454.5,1450.83 454.5,1427.17 454.5,1403.5C 460.167,1403.5 465.833,1403.5 471.5,1403.5C 471.5,1433.17 471.5,1462.83 471.5,1492.5C 442.5,1492.5 413.5,1492.5 384.5,1492.5C 384.5,1480.5 384.5,1468.5 384.5,1456.5C 367.5,1456.5 350.5,1456.5 333.5,1456.5C 332.51,1462.31 332.177,1468.31 332.5,1474.5C 344.167,1474.5 355.833,1474.5 367.5,1474.5C 367.5,1480.5 367.5,1486.5 367.5,1492.5C 350.167,1492.5 332.833,1492.5 315.5,1492.5C 315.5,1474.5 315.5,1456.5 315.5,1438.5C 338.5,1438.5 361.5,1438.5 384.5,1438.5C 384.5,1426.83 384.5,1415.17 384.5,1403.5C 390.5,1403.5 396.5,1403.5 402.5,1403.5C 402.5,1426.83 402.5,1450.17 402.5,1473.5 Z"/></g>
<g><path style="opacity:1" fill="#d4595d" d="M 419.5,1403.5 C 419.5,1427.17 419.5,1450.83 419.5,1474.5C 413.642,1474.82 407.975,1474.49 402.5,1473.5C 407.833,1473.5 413.167,1473.5 418.5,1473.5C 418.169,1449.99 418.502,1426.66 419.5,1403.5 Z"/></g>
<g><path style="opacity:1" fill="#fefefe" d="M 488.5,1403.5 C 563.833,1403.5 639.167,1403.5 714.5,1403.5C 714.5,1409.5 714.5,1415.5 714.5,1421.5C 639.167,1421.5 563.833,1421.5 488.5,1421.5C 488.5,1415.5 488.5,1409.5 488.5,1403.5 Z"/></g>
<g><path style="opacity:1" fill="#fefbfb" d="M 783.5,1473.5 C 788.975,1474.49 794.642,1474.82 800.5,1474.5C 800.5,1450.83 800.5,1427.17 800.5,1403.5C 806.167,1403.5 811.833,1403.5 817.5,1403.5C 817.5,1433.17 817.5,1462.83 817.5,1492.5C 788.831,1492.67 760.165,1492.5 731.5,1492C 730.512,1480.25 730.179,1468.41 730.5,1456.5C 713.5,1456.5 696.5,1456.5 679.5,1456.5C 679.5,1462.5 679.5,1468.5 679.5,1474.5C 690.833,1474.5 702.167,1474.5 713.5,1474.5C 713.5,1480.17 713.5,1485.83 713.5,1491.5C 696.5,1491.5 679.5,1491.5 662.5,1491.5C 662.5,1474.17 662.5,1456.83 662.5,1439.5C 685.339,1439.83 708.006,1439.5 730.5,1438.5C 730.5,1426.83 730.5,1415.17 730.5,1403.5C 736.5,1403.5 742.5,1403.5 748.5,1403.5C 748.5,1427.17 748.5,1450.83 748.5,1474.5C 754.167,1474.5 759.833,1474.5 765.5,1474.5C 765.5,1450.83 765.5,1427.17 765.5,1403.5C 771.5,1403.5 777.5,1403.5 783.5,1403.5C 783.5,1426.83 783.5,1450.17 783.5,1473.5 Z"/></g>
<g><path style="opacity:1" fill="#d4595d" d="M 800.5,1403.5 C 800.5,1427.17 800.5,1450.83 800.5,1474.5C 794.642,1474.82 788.975,1474.49 783.5,1473.5C 788.833,1473.5 794.167,1473.5 799.5,1473.5C 799.169,1449.99 799.502,1426.66 800.5,1403.5 Z"/></g>
<g><path style="opacity:1" fill="#fefefe" d="M 834.5,1403.5 C 909.833,1403.5 985.167,1403.5 1060.5,1403.5C 1060.5,1409.5 1060.5,1415.5 1060.5,1421.5C 985.167,1421.5 909.833,1421.5 834.5,1421.5C 834.5,1415.5 834.5,1409.5 834.5,1403.5 Z"/></g>
<g><path style="opacity:1" fill="#fefcfc" d="M 1094.5,1403.5 C 1094.5,1427.17 1094.5,1450.83 1094.5,1474.5C 1100.5,1474.5 1106.5,1474.5 1112.5,1474.5C 1112.5,1450.83 1112.5,1427.17 1112.5,1403.5C 1118.17,1403.5 1123.83,1403.5 1129.5,1403.5C 1129.5,1427.17 1129.5,1450.83 1129.5,1474.5C 1135.17,1474.5 1140.83,1474.5 1146.5,1474.5C 1146.5,1450.83 1146.5,1427.17 1146.5,1403.5C 1152.5,1403.5 1158.5,1403.5 1164.5,1403.5C 1164.5,1433.17 1164.5,1462.83 1164.5,1492.5C 1135.33,1492.83 1106.33,1492.5 1077.5,1491.5C 1077.5,1479.83 1077.5,1468.17 1077.5,1456.5C 1059.99,1456.17 1042.66,1456.5 1025.5,1457.5C 1025.5,1463.17 1025.5,1468.83 1025.5,1474.5C 1037.17,1474.5 1048.83,1474.5 1060.5,1474.5C 1060.5,1480.17 1060.5,1485.83 1060.5,1491.5C 1043.17,1491.5 1025.83,1491.5 1008.5,1491.5C 1008.5,1473.83 1008.5,1456.17 1008.5,1438.5C 1031.5,1438.5 1054.5,1438.5 1077.5,1438.5C 1077.5,1426.83 1077.5,1415.17 1077.5,1403.5C 1083.17,1403.5 1088.83,1403.5 1094.5,1403.5 Z"/></g>
<g><path style="opacity:1" fill="#d96b6d" d="M 1094.5,1403.5 C 1095.5,1426.66 1095.83,1449.99 1095.5,1473.5C 1100.83,1473.5 1106.17,1473.5 1111.5,1473.5C 1111.17,1449.99 1111.5,1426.66 1112.5,1403.5C 1112.5,1427.17 1112.5,1450.83 1112.5,1474.5C 1106.5,1474.5 1100.5,1474.5 1094.5,1474.5C 1094.5,1450.83 1094.5,1427.17 1094.5,1403.5 Z"/></g>
<g><path style="opacity:1" fill="#fefffe" d="M 1181.5,1403.5 C 1256.5,1403.5 1331.5,1403.5 1406.5,1403.5C 1406.5,1409.5 1406.5,1415.5 1406.5,1421.5C 1331.5,1421.5 1256.5,1421.5 1181.5,1421.5C 1181.5,1415.5 1181.5,1409.5 1181.5,1403.5 Z"/></g>
<g><path style="opacity:1" fill="#fefbfb" d="M 1441.5,1473.5 C 1446.98,1474.49 1452.64,1474.82 1458.5,1474.5C 1458.5,1450.83 1458.5,1427.17 1458.5,1403.5C 1464.17,1403.5 1469.83,1403.5 1475.5,1403.5C 1475.5,1427.17 1475.5,1450.83 1475.5,1474.5C 1481.36,1474.82 1487.02,1474.49 1492.5,1473.5C 1492.5,1450.17 1492.5,1426.83 1492.5,1403.5C 1498.5,1403.5 1504.5,1403.5 1510.5,1403.5C 1510.5,1433.17 1510.5,1462.83 1510.5,1492.5C 1481.5,1492.5 1452.5,1492.5 1423.5,1492.5C 1423.5,1480.5 1423.5,1468.5 1423.5,1456.5C 1406.5,1456.5 1389.5,1456.5 1372.5,1456.5C 1371.51,1462.31 1371.18,1468.31 1371.5,1474.5C 1383.17,1474.5 1394.83,1474.5 1406.5,1474.5C 1406.5,1480.5 1406.5,1486.5 1406.5,1492.5C 1389.17,1492.5 1371.83,1492.5 1354.5,1492.5C 1354.5,1474.5 1354.5,1456.5 1354.5,1438.5C 1377.5,1438.5 1400.5,1438.5 1423.5,1438.5C 1423.5,1426.83 1423.5,1415.17 1423.5,1403.5C 1429.5,1403.5 1435.5,1403.5 1441.5,1403.5C 1441.5,1426.83 1441.5,1450.17 1441.5,1473.5 Z"/></g>
<g><path style="opacity:1" fill="#d4595d" d="M 1458.5,1403.5 C 1458.5,1427.17 1458.5,1450.83 1458.5,1474.5C 1452.64,1474.82 1446.98,1474.49 1441.5,1473.5C 1446.83,1473.5 1452.17,1473.5 1457.5,1473.5C 1457.17,1449.99 1457.5,1426.66 1458.5,1403.5 Z"/></g>
<g><path style="opacity:1" fill="#d4595d" d="M 1475.5,1403.5 C 1476.5,1426.66 1476.83,1449.99 1476.5,1473.5C 1481.83,1473.5 1487.17,1473.5 1492.5,1473.5C 1487.02,1474.49 1481.36,1474.82 1475.5,1474.5C 1475.5,1450.83 1475.5,1427.17 1475.5,1403.5 Z"/></g>
<g><path style="opacity:1" fill="#fefefe" d="M 1527.5,1403.5 C 1602.83,1403.5 1678.17,1403.5 1753.5,1403.5C 1753.5,1409.5 1753.5,1415.5 1753.5,1421.5C 1678.17,1421.5 1602.83,1421.5 1527.5,1421.5C 1527.5,1415.5 1527.5,1409.5 1527.5,1403.5 Z"/></g>
<g><path style="opacity:1" fill="#fefcfc" d="M 1821.5,1403.5 C 1821.5,1427.17 1821.5,1450.83 1821.5,1474.5C 1827.5,1474.5 1833.5,1474.5 1839.5,1474.5C 1839.5,1450.83 1839.5,1427.17 1839.5,1403.5C 1845.17,1403.5 1850.83,1403.5 1856.5,1403.5C 1856.5,1433.17 1856.5,1462.83 1856.5,1492.5C 1827.83,1492.67 1799.16,1492.5 1770.5,1492C 1769.51,1480.25 1769.18,1468.41 1769.5,1456.5C 1752.5,1456.5 1735.5,1456.5 1718.5,1456.5C 1718.5,1462.5 1718.5,1468.5 1718.5,1474.5C 1729.83,1474.5 1741.17,1474.5 1752.5,1474.5C 1752.5,1480.17 1752.5,1485.83 1752.5,1491.5C 1735.5,1491.5 1718.5,1491.5 1701.5,1491.5C 1701.5,1474.17 1701.5,1456.83 1701.5,1439.5C 1724.34,1439.83 1747.01,1439.5 1769.5,1438.5C 1769.5,1426.83 1769.5,1415.17 1769.5,1403.5C 1775.5,1403.5 1781.5,1403.5 1787.5,1403.5C 1787.5,1427.17 1787.5,1450.83 1787.5,1474.5C 1793.17,1474.5 1798.83,1474.5 1804.5,1474.5C 1804.5,1450.83 1804.5,1427.17 1804.5,1403.5C 1810.17,1403.5 1815.83,1403.5 1821.5,1403.5 Z"/></g>
<g><path style="opacity:1" fill="#d96b6d" d="M 1821.5,1403.5 C 1822.5,1426.66 1822.83,1449.99 1822.5,1473.5C 1827.83,1473.5 1833.17,1473.5 1838.5,1473.5C 1838.17,1449.99 1838.5,1426.66 1839.5,1403.5C 1839.5,1427.17 1839.5,1450.83 1839.5,1474.5C 1833.5,1474.5 1827.5,1474.5 1821.5,1474.5C 1821.5,1450.83 1821.5,1427.17 1821.5,1403.5 Z"/></g>
<g><path style="opacity:1" fill="#fefbfb" d="M 1915.5,1402.5 C 1912.74,1409.02 1909.74,1415.36 1906.5,1421.5C 1895.5,1421.5 1884.5,1421.5 1873.5,1421.5C 1873.5,1415.5 1873.5,1409.5 1873.5,1403.5C 1887.58,1403.82 1901.58,1403.48 1915.5,1402.5 Z"/></g>
<g><path style="opacity:1" fill="#f0c7c9" d="M 730.5,1438.5 C 708.006,1439.5 685.339,1439.83 662.5,1439.5C 662.5,1456.83 662.5,1474.17 662.5,1491.5C 662.167,1491.5 661.833,1491.5 661.5,1491.5C 661.5,1473.83 661.5,1456.17 661.5,1438.5C 684.5,1438.5 707.5,1438.5 730.5,1438.5 Z"/></g>
<g><path style="opacity:1" fill="#efc1c3" d="M 921.5,1438.5 C 921.5,1438.83 921.5,1439.17 921.5,1439.5C 892.833,1439.5 864.167,1439.5 835.5,1439.5C 835.5,1456.83 835.5,1474.17 835.5,1491.5C 841.167,1491.5 846.833,1491.5 852.5,1491.5C 846.69,1492.49 840.69,1492.82 834.5,1492.5C 834.5,1474.5 834.5,1456.5 834.5,1438.5C 863.5,1438.5 892.5,1438.5 921.5,1438.5 Z"/></g>
<g><path style="opacity:1" fill="#f0c7c9" d="M 990.5,1438.5 C 990.5,1438.83 990.5,1439.17 990.5,1439.5C 973.5,1439.5 956.5,1439.5 939.5,1439.5C 939.5,1445.17 939.5,1450.83 939.5,1456.5C 938.51,1450.69 938.177,1444.69 938.5,1438.5C 955.833,1438.5 973.167,1438.5 990.5,1438.5 Z"/></g>
<g><path style="opacity:1" fill="#f0c7c9" d="M 1527.5,1439.5 C 1556.33,1438.5 1585.33,1438.17 1614.5,1438.5C 1614.5,1450.17 1614.5,1461.83 1614.5,1473.5C 1614.5,1473.83 1614.5,1474.17 1614.5,1474.5C 1613.51,1463.01 1613.17,1451.35 1613.5,1439.5C 1584.83,1439.5 1556.17,1439.5 1527.5,1439.5 Z"/></g>
<g><path style="opacity:1" fill="#f0c7c9" d="M 1769.5,1438.5 C 1747.01,1439.5 1724.34,1439.83 1701.5,1439.5C 1701.5,1456.83 1701.5,1474.17 1701.5,1491.5C 1701.17,1491.5 1700.83,1491.5 1700.5,1491.5C 1700.5,1473.83 1700.5,1456.17 1700.5,1438.5C 1723.5,1438.5 1746.5,1438.5 1769.5,1438.5 Z"/></g>
<g><path style="opacity:1" fill="#fefdfd" d="M 228.5,1438.5 C 228.5,1450.5 228.5,1462.5 228.5,1474.5C 246.008,1474.83 263.341,1474.5 280.5,1473.5C 280.5,1467.83 280.5,1462.17 280.5,1456.5C 269.167,1456.5 257.833,1456.5 246.5,1456.5C 246.5,1450.83 246.5,1445.17 246.5,1439.5C 263.5,1439.5 280.5,1439.5 297.5,1439.5C 297.5,1456.83 297.5,1474.17 297.5,1491.5C 268.833,1491.5 240.167,1491.5 211.5,1491.5C 211.5,1480.17 211.5,1468.83 211.5,1457.5C 194.341,1456.5 177.008,1456.17 159.5,1456.5C 159.5,1468.17 159.5,1479.83 159.5,1491.5C 154.025,1492.49 148.358,1492.82 142.5,1492.5C 142.5,1474.5 142.5,1456.5 142.5,1438.5C 171.167,1438.5 199.833,1438.5 228.5,1438.5 Z"/></g>
<g><path style="opacity:1" fill="#ecb2b4" d="M 211.5,1491.5 C 240.167,1491.5 268.833,1491.5 297.5,1491.5C 297.5,1474.17 297.5,1456.83 297.5,1439.5C 280.5,1439.5 263.5,1439.5 246.5,1439.5C 246.5,1445.17 246.5,1450.83 246.5,1456.5C 245.51,1450.69 245.177,1444.69 245.5,1438.5C 263.167,1438.5 280.833,1438.5 298.5,1438.5C 298.5,1456.5 298.5,1474.5 298.5,1492.5C 269.329,1492.83 240.329,1492.5 211.5,1491.5 Z"/></g>
<g><path style="opacity:1" fill="#fefafa" d="M 575.5,1473.5 C 592.659,1474.5 609.992,1474.83 627.5,1474.5C 627.823,1468.31 627.49,1462.31 626.5,1456.5C 615.167,1456.5 603.833,1456.5 592.5,1456.5C 592.5,1450.5 592.5,1444.5 592.5,1438.5C 609.833,1438.5 627.167,1438.5 644.5,1438.5C 644.5,1456.5 644.5,1474.5 644.5,1492.5C 615.5,1492.5 586.5,1492.5 557.5,1492.5C 557.5,1480.5 557.5,1468.5 557.5,1456.5C 540.5,1456.5 523.5,1456.5 506.5,1456.5C 506.5,1468.5 506.5,1480.5 506.5,1492.5C 500.5,1492.5 494.5,1492.5 488.5,1492.5C 488.5,1474.5 488.5,1456.5 488.5,1438.5C 517.5,1438.5 546.5,1438.5 575.5,1438.5C 575.5,1450.17 575.5,1461.83 575.5,1473.5 Z"/></g>
<g><path style="opacity:1" fill="#fefffe" d="M 921.5,1439.5 C 921.5,1451.17 921.5,1462.83 921.5,1474.5C 939.008,1474.83 956.341,1474.5 973.5,1473.5C 973.5,1467.83 973.5,1462.17 973.5,1456.5C 962.167,1456.5 950.833,1456.5 939.5,1456.5C 939.5,1450.83 939.5,1445.17 939.5,1439.5C 956.5,1439.5 973.5,1439.5 990.5,1439.5C 990.5,1456.83 990.5,1474.17 990.5,1491.5C 961.833,1491.5 933.167,1491.5 904.5,1491.5C 904.5,1479.83 904.5,1468.17 904.5,1456.5C 886.992,1456.17 869.659,1456.5 852.5,1457.5C 852.5,1468.83 852.5,1480.17 852.5,1491.5C 846.833,1491.5 841.167,1491.5 835.5,1491.5C 835.5,1474.17 835.5,1456.83 835.5,1439.5C 864.167,1439.5 892.833,1439.5 921.5,1439.5 Z"/></g>
<g><path style="opacity:1" fill="#fefdfd" d="M 1267.5,1438.5 C 1267.5,1450.5 1267.5,1462.5 1267.5,1474.5C 1285.01,1474.83 1302.34,1474.5 1319.5,1473.5C 1319.5,1467.83 1319.5,1462.17 1319.5,1456.5C 1308.17,1456.5 1296.83,1456.5 1285.5,1456.5C 1285.5,1450.83 1285.5,1445.17 1285.5,1439.5C 1302.5,1439.5 1319.5,1439.5 1336.5,1439.5C 1336.5,1456.83 1336.5,1474.17 1336.5,1491.5C 1307.83,1491.5 1279.17,1491.5 1250.5,1491.5C 1250.5,1480.17 1250.5,1468.83 1250.5,1457.5C 1233.34,1456.5 1216.01,1456.17 1198.5,1456.5C 1198.5,1468.17 1198.5,1479.83 1198.5,1491.5C 1193.02,1492.49 1187.36,1492.82 1181.5,1492.5C 1181.5,1474.5 1181.5,1456.5 1181.5,1438.5C 1210.17,1438.5 1238.83,1438.5 1267.5,1438.5 Z"/></g>
<g><path style="opacity:1" fill="#ecb2b4" d="M 1250.5,1491.5 C 1279.17,1491.5 1307.83,1491.5 1336.5,1491.5C 1336.5,1474.17 1336.5,1456.83 1336.5,1439.5C 1319.5,1439.5 1302.5,1439.5 1285.5,1439.5C 1285.5,1445.17 1285.5,1450.83 1285.5,1456.5C 1284.51,1450.69 1284.18,1444.69 1284.5,1438.5C 1302.17,1438.5 1319.83,1438.5 1337.5,1438.5C 1337.5,1456.5 1337.5,1474.5 1337.5,1492.5C 1308.33,1492.83 1279.33,1492.5 1250.5,1491.5 Z"/></g>
<g><path style="opacity:1" fill="#fefbfb" d="M 1527.5,1439.5 C 1556.17,1439.5 1584.83,1439.5 1613.5,1439.5C 1613.17,1451.35 1613.51,1463.01 1614.5,1474.5C 1631.83,1474.5 1649.17,1474.5 1666.5,1474.5C 1666.82,1468.31 1666.49,1462.31 1665.5,1456.5C 1654.17,1456.5 1642.83,1456.5 1631.5,1456.5C 1631.5,1450.5 1631.5,1444.5 1631.5,1438.5C 1648.83,1438.5 1666.17,1438.5 1683.5,1438.5C 1683.5,1456.5 1683.5,1474.5 1683.5,1492.5C 1654.5,1492.5 1625.5,1492.5 1596.5,1492.5C 1596.5,1480.5 1596.5,1468.5 1596.5,1456.5C 1579.5,1456.5 1562.5,1456.5 1545.5,1456.5C 1545.5,1468.5 1545.5,1480.5 1545.5,1492.5C 1539.5,1492.5 1533.5,1492.5 1527.5,1492.5C 1527.5,1474.83 1527.5,1457.17 1527.5,1439.5 Z"/></g>
<g><path style="opacity:1" fill="#f0c6c8" d="M 1898.5,1438.5 C 1898.67,1439.49 1898.34,1440.16 1897.5,1440.5C 1890.02,1439.51 1882.35,1439.17 1874.5,1439.5C 1874.17,1454.01 1874.5,1468.34 1875.5,1482.5C 1875.34,1484.15 1874.67,1485.49 1873.5,1486.5C 1873.5,1470.5 1873.5,1454.5 1873.5,1438.5C 1881.83,1438.5 1890.17,1438.5 1898.5,1438.5 Z"/></g>
<g><path style="opacity:1" fill="#fefafa" d="M 1897.5,1440.5 C 1891.18,1455.14 1883.85,1469.14 1875.5,1482.5C 1874.5,1468.34 1874.17,1454.01 1874.5,1439.5C 1882.35,1439.17 1890.02,1439.51 1897.5,1440.5 Z"/></g>
<g><path style="opacity:1" fill="#d4595d" d="M 211.5,1457.5 C 194.5,1457.5 177.5,1457.5 160.5,1457.5C 160.828,1469.01 160.495,1480.35 159.5,1491.5C 159.5,1479.83 159.5,1468.17 159.5,1456.5C 177.008,1456.17 194.341,1456.5 211.5,1457.5 Z"/></g>
<g><path style="opacity:1" fill="#d4595d" d="M 852.5,1457.5 C 869.659,1456.5 886.992,1456.17 904.5,1456.5C 904.5,1468.17 904.5,1479.83 904.5,1491.5C 903.505,1480.35 903.172,1469.01 903.5,1457.5C 886.5,1457.5 869.5,1457.5 852.5,1457.5 Z"/></g>
<g><path style="opacity:1" fill="#d4595d" d="M 1025.5,1457.5 C 1042.66,1456.5 1059.99,1456.17 1077.5,1456.5C 1077.5,1468.17 1077.5,1479.83 1077.5,1491.5C 1076.51,1480.35 1076.17,1469.01 1076.5,1457.5C 1059.5,1457.5 1042.5,1457.5 1025.5,1457.5 Z"/></g>
<g><path style="opacity:1" fill="#d4595d" d="M 1250.5,1457.5 C 1233.5,1457.5 1216.5,1457.5 1199.5,1457.5C 1199.83,1469.01 1199.49,1480.35 1198.5,1491.5C 1198.5,1479.83 1198.5,1468.17 1198.5,1456.5C 1216.01,1456.17 1233.34,1456.5 1250.5,1457.5 Z"/></g>
<g><path style="opacity:1" fill="#d9696c" d="M 228.5,1438.5 C 229.495,1449.99 229.828,1461.65 229.5,1473.5C 246.5,1473.5 263.5,1473.5 280.5,1473.5C 263.341,1474.5 246.008,1474.83 228.5,1474.5C 228.5,1462.5 228.5,1450.5 228.5,1438.5 Z"/></g>
<g><path style="opacity:1" fill="#d8686b" d="M 333.5,1456.5 C 333.5,1462.17 333.5,1467.83 333.5,1473.5C 345.012,1473.17 356.346,1473.51 367.5,1474.5C 355.833,1474.5 344.167,1474.5 332.5,1474.5C 332.177,1468.31 332.51,1462.31 333.5,1456.5 Z"/></g>
<g><path style="opacity:1" fill="#de7b7e" d="M 436.5,1403.5 C 437.498,1426.66 437.831,1449.99 437.5,1473.5C 442.833,1473.5 448.167,1473.5 453.5,1473.5C 453.169,1449.99 453.502,1426.66 454.5,1403.5C 454.5,1427.17 454.5,1450.83 454.5,1474.5C 448.5,1474.5 442.5,1474.5 436.5,1474.5C 436.5,1450.83 436.5,1427.17 436.5,1403.5 Z"/></g>
<g><path style="opacity:1" fill="#d76568" d="M 626.5,1456.5 C 627.49,1462.31 627.823,1468.31 627.5,1474.5C 609.992,1474.83 592.659,1474.5 575.5,1473.5C 592.5,1473.5 609.5,1473.5 626.5,1473.5C 626.5,1467.83 626.5,1462.17 626.5,1456.5 Z"/></g>
<g><path style="opacity:1" fill="#d4595d" d="M 921.5,1438.5 C 922.495,1449.99 922.828,1461.65 922.5,1473.5C 939.5,1473.5 956.5,1473.5 973.5,1473.5C 956.341,1474.5 939.008,1474.83 921.5,1474.5C 921.5,1462.83 921.5,1451.17 921.5,1439.5C 921.5,1439.17 921.5,1438.83 921.5,1438.5 Z"/></g>
<g><path style="opacity:1" fill="#d9696c" d="M 1267.5,1438.5 C 1268.49,1449.99 1268.83,1461.65 1268.5,1473.5C 1285.5,1473.5 1302.5,1473.5 1319.5,1473.5C 1302.34,1474.5 1285.01,1474.83 1267.5,1474.5C 1267.5,1462.5 1267.5,1450.5 1267.5,1438.5 Z"/></g>
<g><path style="opacity:1" fill="#d8686b" d="M 1372.5,1456.5 C 1372.5,1462.17 1372.5,1467.83 1372.5,1473.5C 1384.01,1473.17 1395.35,1473.51 1406.5,1474.5C 1394.83,1474.5 1383.17,1474.5 1371.5,1474.5C 1371.18,1468.31 1371.51,1462.31 1372.5,1456.5 Z"/></g>
<g><path style="opacity:1" fill="#d76568" d="M 1665.5,1456.5 C 1666.49,1462.31 1666.82,1468.31 1666.5,1474.5C 1649.17,1474.5 1631.83,1474.5 1614.5,1474.5C 1614.5,1474.17 1614.5,1473.83 1614.5,1473.5C 1631.5,1473.5 1648.5,1473.5 1665.5,1473.5C 1665.5,1467.83 1665.5,1462.17 1665.5,1456.5 Z"/></g>
<g><path style="opacity:1" fill="#fdf3f3" d="M 176.5,1474.5 C 182.5,1474.5 188.5,1474.5 194.5,1474.5C 194.5,1480.5 194.5,1486.5 194.5,1492.5C 188.824,1492.67 183.157,1492.5 177.5,1492C 176.525,1486.26 176.192,1480.43 176.5,1474.5 Z"/></g>
<g><path style="opacity:1" fill="#fef9f9" d="M 523.5,1474.5 C 529.167,1474.5 534.833,1474.5 540.5,1474.5C 540.5,1480.5 540.5,1486.5 540.5,1492.5C 534.833,1492.5 529.167,1492.5 523.5,1492.5C 523.5,1486.5 523.5,1480.5 523.5,1474.5 Z"/></g>
<g><path style="opacity:1" fill="#fdf3f3" d="M 869.5,1474.5 C 875.5,1474.5 881.5,1474.5 887.5,1474.5C 887.666,1480.18 887.499,1485.84 887,1491.5C 881.259,1492.47 875.425,1492.81 869.5,1492.5C 869.5,1486.5 869.5,1480.5 869.5,1474.5 Z"/></g>
<g><path style="opacity:1" fill="#fdf6f6" d="M 1215.5,1474.5 C 1221.5,1474.5 1227.5,1474.5 1233.5,1474.5C 1233.5,1480.5 1233.5,1486.5 1233.5,1492.5C 1227.5,1492.5 1221.5,1492.5 1215.5,1492.5C 1215.5,1486.5 1215.5,1480.5 1215.5,1474.5 Z"/></g>
<g><path style="opacity:1" fill="#fdf3f3" d="M 1561.5,1474.5 C 1567.5,1474.5 1573.5,1474.5 1579.5,1474.5C 1579.5,1480.5 1579.5,1486.5 1579.5,1492.5C 1573.82,1492.67 1568.16,1492.5 1562.5,1492C 1561.53,1486.26 1561.19,1480.43 1561.5,1474.5 Z"/></g>
<g><path style="opacity:1" fill="#e28e91" d="M 713.5,1474.5 C 714.49,1480.31 714.823,1486.31 714.5,1492.5C 696.659,1492.83 678.992,1492.5 661.5,1491.5C 661.833,1491.5 662.167,1491.5 662.5,1491.5C 679.5,1491.5 696.5,1491.5 713.5,1491.5C 713.5,1485.83 713.5,1480.17 713.5,1474.5 Z"/></g>
<g><path style="opacity:1" fill="#e28f92" d="M 990.5,1438.5 C 991.497,1456.33 991.83,1474.33 991.5,1492.5C 962.329,1492.83 933.329,1492.5 904.5,1491.5C 933.167,1491.5 961.833,1491.5 990.5,1491.5C 990.5,1474.17 990.5,1456.83 990.5,1439.5C 990.5,1439.17 990.5,1438.83 990.5,1438.5 Z"/></g>
<g><path style="opacity:1" fill="#e28f92" d="M 1008.5,1438.5 C 1008.5,1456.17 1008.5,1473.83 1008.5,1491.5C 1025.83,1491.5 1043.17,1491.5 1060.5,1491.5C 1043.01,1492.5 1025.34,1492.83 1007.5,1492.5C 1007.17,1474.33 1007.5,1456.33 1008.5,1438.5 Z"/></g>
<g><path style="opacity:1" fill="#e28e91" d="M 1752.5,1474.5 C 1753.49,1480.31 1753.82,1486.31 1753.5,1492.5C 1735.66,1492.83 1717.99,1492.5 1700.5,1491.5C 1700.83,1491.5 1701.17,1491.5 1701.5,1491.5C 1718.5,1491.5 1735.5,1491.5 1752.5,1491.5C 1752.5,1485.83 1752.5,1480.17 1752.5,1474.5 Z"/></g>
</svg>
